<svg xmlns="http://www.w3.org/2000/svg" xmlns:xlink="http://www.w3.org/1999/xlink" width="200" zoomAndPan="magnify" viewBox="0 0 150 599.999999" height="800" preserveAspectRatio="xMidYMid meet" version="1.0"><defs><clipPath id="14b185945e"><path d="M 23 445 L 126 445 L 126 503.789062 L 23 503.789062 Z M 23 445 " clip-rule="nonzero"/></clipPath></defs><path fill="#f8be64" d="M 96.265625 113.398438 L 82.210938 121.421875 L 81.394531 121.878906 L 80.125 119.875 C 80.089844 120.980469 81.019531 154.179688 80.304688 155.136719 C 74.742188 156.597656 32.417969 155.136719 31.332031 154.53125 C 30.242188 153.921875 31.691406 138.722656 31.691406 138.722656 L 19.765625 127.578125 L 17.421875 124.371094 L 15.421875 123.820312 C 15.1875 123.753906 15.046875 123.515625 15.105469 123.28125 C 15.761719 120.53125 19.566406 105.046875 24.074219 96.648438 C 29.03125 87.40625 46.566406 87.589844 46.566406 87.589844 C 46.566406 87.589844 48.019531 92.265625 55.046875 92.320312 C 56.632812 92.332031 60.171875 91.238281 60.246094 87.589844 C 60.246094 87.589844 76.675781 87.984375 81.574219 93.699219 C 87.769531 100.929688 95.609375 110.648438 96.265625 113.398438 Z M 96.265625 113.398438 L 82.210938 121.421875 L 81.394531 121.878906 L 80.125 119.875 C 80.089844 120.980469 81.019531 154.179688 80.304688 155.136719 C 74.742188 156.597656 32.417969 155.136719 31.332031 154.53125 C 30.242188 153.921875 31.691406 138.722656 31.691406 138.722656 L 19.765625 127.578125 L 17.421875 124.371094 L 15.421875 123.820312 C 15.1875 123.753906 15.046875 123.515625 15.105469 123.28125 C 15.761719 120.53125 19.566406 105.046875 24.074219 96.648438 C 29.03125 87.40625 46.566406 87.589844 46.566406 87.589844 C 46.566406 87.589844 48.019531 92.265625 55.046875 92.320312 C 56.632812 92.332031 60.171875 91.238281 60.246094 87.589844 C 60.246094 87.589844 76.425781 87.648438 81.324219 93.363281 C 87.519531 100.59375 95.609375 110.648438 96.265625 113.398438 Z M 96.265625 113.398438 " fill-opacity="1" fill-rule="nonzero"/><path fill="#ff8f7e" d="M 69.695312 76.1875 C 69.414062 76.175781 69.136719 76.152344 68.867188 76.121094 C 66.890625 78.179688 64.105469 80.175781 60.351562 81.082031 L 60.351562 86.859375 C 60.351562 86.859375 60.59375 92.574219 53.882812 92.574219 C 47.171875 92.574219 46.566406 87.589844 46.566406 87.589844 L 46.867188 79.734375 C 40.519531 76.765625 38.917969 70.949219 38.464844 67.585938 C 34.230469 68.191406 31.089844 62.964844 32.902344 58.222656 C 34.714844 53.480469 39.191406 56.277344 39.191406 56.277344 C 44.875 57.25 50.800781 48.613281 51.402344 43.265625 C 52.679688 51.222656 57.726562 54.601562 60.609375 55.90625 C 63.777344 51.511719 69.964844 51.929688 69.964844 51.929688 C 76.042969 51.929688 80.847656 56.945312 81.394531 63.054688 C 81.9375 69.164062 77.765625 76.554688 69.695312 76.1875 Z M 69.695312 76.1875 C 69.414062 76.175781 69.136719 76.152344 68.867188 76.121094 C 66.890625 78.179688 64.105469 80.175781 60.351562 81.082031 L 60.246094 87.589844 C 60.246094 87.589844 60.59375 92.574219 53.882812 92.574219 C 47.171875 92.574219 46.566406 87.589844 46.566406 87.589844 L 46.867188 79.734375 C 40.519531 76.765625 38.917969 70.949219 38.464844 67.585938 C 34.230469 68.191406 31.089844 62.964844 32.902344 58.222656 C 34.714844 53.480469 39.191406 56.277344 39.191406 56.277344 C 44.875 57.25 50.800781 48.613281 51.402344 43.265625 C 52.679688 51.222656 57.726562 54.601562 60.609375 55.90625 C 63.777344 51.511719 69.964844 51.929688 69.964844 51.929688 C 76.042969 51.929688 80.847656 56.945312 81.394531 63.054688 C 81.9375 69.164062 77.765625 76.554688 69.695312 76.1875 Z M 69.695312 76.1875 " fill-opacity="1" fill-rule="nonzero"/><path fill="#000000" d="M 79.707031 57.339844 C 79.84375 57.542969 79.972656 57.742188 80.089844 57.933594 C 80.496094 56.25 80.636719 54.34375 80.402344 52.238281 C 79.457031 43.664062 73.792969 34.710938 63.375 32.808594 C 48.222656 28.523438 39.117188 37.105469 35.804688 44.722656 C 33.859375 49.191406 34.304688 53.324219 35.046875 55.714844 C 36 55.359375 37.300781 55.285156 39.152344 56.261719 C 39.152344 58.640625 41.574219 57.949219 43.46875 56.523438 C 49.152344 51.761719 51.519531 46.046875 51.519531 46.046875 C 51.519531 46.046875 52.871094 51.472656 59.074219 57.917969 C 60.285156 55.226562 62.757812 52.46875 67.699219 51.835938 C 67.863281 51.816406 68.023438 51.800781 68.179688 51.785156 C 66.644531 52.480469 64.25 53.660156 64.25 53.660156 L 63.980469 54.117188 C 63.980469 54.117188 74.226562 63.785156 76.585938 57.949219 C 77.3125 61.050781 80.941406 64.695312 80.941406 64.695312 Z M 79.707031 57.339844 C 79.84375 57.542969 79.972656 57.742188 80.089844 57.933594 C 80.496094 56.25 80.636719 54.34375 80.402344 52.238281 C 79.457031 43.664062 73.792969 34.710938 63.375 32.808594 C 48.222656 28.523438 39.117188 37.105469 35.804688 44.722656 C 33.859375 49.191406 34.304688 53.324219 35.046875 55.714844 C 36 55.359375 37.300781 55.285156 39.152344 56.261719 C 39.152344 58.640625 41.574219 57.949219 43.46875 56.523438 C 49.152344 51.761719 51.519531 46.046875 51.519531 46.046875 C 51.519531 46.046875 52.871094 51.472656 59.074219 57.917969 C 60.285156 55.226562 62.757812 52.46875 67.699219 51.835938 C 67.863281 51.816406 68.023438 51.800781 68.179688 51.785156 C 66.644531 52.480469 64.25 53.660156 64.25 53.660156 L 63.980469 54.117188 C 63.980469 54.117188 74.226562 63.785156 76.585938 57.949219 C 77.3125 61.050781 80.941406 64.695312 80.941406 64.695312 Z M 79.707031 57.339844 " fill-opacity="1" fill-rule="nonzero"/><path fill="#0e7658" d="M 78.585938 96.453125 L 74.140625 77.421875 C 80.574219 75.054688 84.394531 68.183594 82.804688 61.296875 C 81.082031 53.851562 73.6875 49.21875 66.28125 50.949219 C 58.875 52.679688 54.269531 60.117188 55.988281 67.5625 C 57.578125 74.449219 64.023438 78.921875 70.835938 78.195312 L 75.261719 97.140625 C 75.464844 98.015625 76.28125 98.65625 77.167969 98.527344 C 78.164062 98.386719 78.808594 97.417969 78.585938 96.453125 Z M 58.90625 66.964844 C 57.574219 61.394531 61.582031 55.160156 67.246094 53.882812 C 72.90625 52.605469 78.574219 56.582031 79.90625 62.152344 C 81.242188 67.71875 77.550781 73.722656 71.886719 74.996094 C 66.222656 76.273438 60.242188 72.535156 58.90625 66.964844 Z M 58.90625 66.964844 " fill-opacity="1" fill-rule="nonzero"/><path fill="#ff8f7e" d="M 102.433594 102.363281 C 105.457031 108.808594 111.019531 124.980469 99.894531 128.386719 C 88.769531 131.789062 82.210938 121.421875 82.210938 121.421875 L 90.472656 115.679688 C 90.472656 115.679688 87.207031 103.457031 84.65625 97.863281 C 78.492188 95.675781 80.125 92.011719 78.308594 91.097656 C 76.496094 90.1875 73.933594 91.304688 73.933594 91.304688 L 74.273438 92.878906 C 74.273438 92.878906 72.890625 92.855469 72.445312 92.757812 C 70.316406 92.285156 69.148438 90.757812 69.542969 88.988281 C 67.847656 88.742188 67.96875 86.796875 68.210938 85.582031 C 66.15625 85.21875 66.625 82.542969 67.109375 81.796875 C 67.652344 80.957031 69.933594 80.140625 72.808594 79.5 C 69.597656 79.386719 65.070312 79.226562 63.554688 78.46875 C 61.875 77.628906 62.671875 75.835938 63.859375 75.792969 C 66.308594 75.703125 73.367188 75.867188 77.355469 76.710938 C 82.628906 77.824219 86.894531 81.023438 90.460938 84.488281 C 93.726562 87.660156 99.410156 95.917969 102.433594 102.363281 Z M 68.695312 108.703125 C 70.191406 107.605469 68.949219 105.394531 67.742188 105.066406 C 68.511719 104.183594 66.585938 102.773438 65.160156 102.773438 C 65.816406 102 63.484375 100.515625 60.851562 101.175781 C 58.21875 101.839844 54.277344 102.910156 53.484375 103.960938 C 52.730469 104.964844 48.984375 116.46875 48.984375 116.46875 L 28.066406 125.222656 C 28.066406 125.222656 20.808594 125.34375 17.425781 124.371094 C 15.246094 128.386719 15.003906 145.042969 24.4375 145.289062 C 36 145.585938 56.570312 125.121094 56.570312 125.121094 C 57.359375 125.09375 62.96875 122.648438 62.527344 118.902344 C 62.175781 115.871094 63.242188 115.714844 63.722656 114.664062 C 63.828125 114.769531 63.964844 114.890625 64.160156 115.039062 C 65.378906 115.960938 70.253906 114.101562 70.148438 111.074219 C 70.101562 109.765625 69.300781 108.914062 68.695312 108.703125 Z M 68.695312 108.703125 " fill-opacity="1" fill-rule="nonzero"/><path fill="#000000" d="M 55.027344 74.511719 C 55.371094 74.546875 55.699219 74.414062 55.914062 74.144531 C 56.316406 73.648438 56.476562 72.953125 56.566406 72.332031 C 56.621094 71.964844 56.65625 71.589844 56.640625 71.21875 C 56.628906 70.964844 56.597656 70.660156 56.464844 70.433594 C 56.460938 70.429688 56.460938 70.429688 56.460938 70.425781 C 56.449219 70.410156 56.445312 70.390625 56.433594 70.375 C 56.425781 70.367188 56.417969 70.359375 56.410156 70.351562 C 56.398438 70.335938 56.394531 70.320312 56.378906 70.304688 C 56.089844 70.015625 55.617188 69.945312 55.234375 70.066406 C 54.75 70.222656 54.457031 70.621094 54.246094 71.066406 C 54.050781 71.480469 53.925781 71.894531 53.867188 72.351562 C 53.8125 72.800781 53.792969 73.292969 53.976562 73.714844 C 54.164062 74.144531 54.558594 74.464844 55.027344 74.511719 Z M 54.679688 71.839844 C 54.730469 71.664062 54.796875 71.515625 54.882812 71.34375 C 54.972656 71.167969 55.066406 70.972656 55.226562 70.847656 C 55.347656 70.75 55.496094 70.707031 55.636719 70.710938 C 55.6875 70.710938 55.730469 70.71875 55.800781 70.742188 C 55.808594 70.746094 55.804688 70.746094 55.808594 70.746094 C 55.816406 70.75 55.816406 70.75 55.832031 70.757812 C 55.84375 70.765625 55.851562 70.769531 55.863281 70.777344 C 55.863281 70.78125 55.867188 70.785156 55.867188 70.785156 C 55.875 70.808594 55.890625 70.847656 55.894531 70.859375 C 55.90625 70.90625 55.914062 70.949219 55.925781 70.996094 C 55.925781 71.003906 55.925781 71.011719 55.925781 71.019531 C 55.925781 71.015625 55.933594 71.078125 55.9375 71.09375 C 55.957031 71.34375 55.949219 71.597656 55.929688 71.847656 C 55.90625 72.117188 55.871094 72.335938 55.808594 72.617188 C 55.78125 72.746094 55.746094 72.871094 55.710938 72.992188 C 55.691406 73.050781 55.671875 73.109375 55.652344 73.167969 C 55.640625 73.203125 55.628906 73.238281 55.617188 73.269531 C 55.617188 73.269531 55.601562 73.308594 55.59375 73.324219 C 55.554688 73.417969 55.507812 73.507812 55.453125 73.59375 C 55.441406 73.621094 55.421875 73.644531 55.410156 73.667969 C 55.40625 73.671875 55.40625 73.667969 55.40625 73.671875 C 55.375 73.707031 55.347656 73.738281 55.3125 73.769531 C 55.300781 73.78125 55.285156 73.785156 55.269531 73.796875 C 55.261719 73.796875 55.261719 73.796875 55.253906 73.796875 C 55.210938 73.808594 55.207031 73.8125 55.171875 73.816406 C 55.03125 73.832031 54.902344 73.777344 54.796875 73.683594 C 54.558594 73.480469 54.527344 73.175781 54.527344 72.882812 C 54.527344 72.53125 54.574219 72.175781 54.679688 71.839844 Z M 32.671875 98.378906 C 31.09375 96.738281 29.050781 95.386719 26.828125 94.851562 C 26.390625 94.746094 26.207031 95.421875 26.640625 95.527344 C 28.574219 95.988281 30.335938 97.097656 31.765625 98.460938 C 33.109375 99.738281 34.296875 101.359375 34.628906 103.226562 C 34.988281 105.246094 35.058594 107.316406 35.0625 109.363281 C 35.0625 111.449219 34.972656 113.535156 34.890625 115.625 C 34.8125 117.519531 34.699219 119.4375 34.851562 121.332031 C 34.886719 121.777344 35.582031 121.78125 35.546875 121.332031 C 35.410156 119.625 35.496094 117.894531 35.5625 116.183594 C 35.644531 114.050781 35.746094 111.917969 35.753906 109.785156 C 35.765625 107.65625 35.695312 105.519531 35.363281 103.414062 C 35.054688 101.460938 34.023438 99.785156 32.671875 98.378906 Z M 29.3125 105.460938 C 29.171875 105.035156 28.5 105.21875 28.640625 105.644531 C 29.40625 107.945312 30.222656 110.226562 31.082031 112.488281 C 31.238281 112.90625 31.910156 112.726562 31.75 112.304688 C 30.890625 110.039062 30.078125 107.757812 29.3125 105.460938 Z M 79.699219 105.285156 C 79.664062 104.839844 78.96875 104.835938 79.003906 105.285156 C 79.410156 110.390625 79.621094 115.511719 79.636719 120.632812 C 79.640625 122.082031 79.625 123.53125 79.597656 124.980469 C 79.589844 125.429688 80.285156 125.429688 80.292969 124.980469 C 80.390625 119.859375 80.292969 114.734375 80 109.625 C 79.914062 108.175781 79.816406 106.730469 79.699219 105.285156 Z M 66.792969 121.53125 C 63.898438 127.136719 59.988281 132.191406 55.296875 136.390625 C 53.980469 137.570312 52.605469 138.679688 51.171875 139.714844 C 50.8125 139.976562 51.160156 140.582031 51.523438 140.320312 C 56.695312 136.578125 61.167969 131.894531 64.675781 126.546875 C 65.660156 125.039062 66.566406 123.484375 67.394531 121.882812 C 67.597656 121.484375 67 121.132812 66.792969 121.53125 Z M 60.144531 92.777344 C 61.320312 91.507812 62.019531 89.894531 62.683594 88.320312 C 62.757812 88.148438 62.734375 87.949219 62.558594 87.84375 C 62.414062 87.757812 62.15625 87.796875 62.082031 87.96875 C 61.527344 89.28125 60.960938 90.628906 60.089844 91.769531 C 59.191406 92.941406 57.984375 93.710938 56.550781 94.042969 C 55.050781 94.394531 53.425781 94.328125 51.925781 94 C 50.460938 93.675781 49.042969 93.058594 47.882812 92.09375 C 46.652344 91.074219 45.714844 89.726562 45.289062 88.175781 C 45.171875 87.742188 44.5 87.925781 44.621094 88.363281 C 45.460938 91.4375 48.074219 93.644531 51.058594 94.5 C 54.078125 95.367188 57.878906 95.222656 60.144531 92.777344 Z M 28.332031 124.964844 C 25.578125 125.835938 22.894531 126.910156 20.296875 128.179688 C 19.894531 128.375 20.246094 128.980469 20.648438 128.785156 C 23.191406 127.542969 25.820312 126.492188 28.515625 125.636719 C 28.941406 125.503906 28.757812 124.828125 28.332031 124.964844 Z M 92.46875 122.691406 C 91.953125 120.511719 91.4375 118.328125 90.921875 116.148438 C 90.816406 115.710938 90.144531 115.894531 90.25 116.335938 C 90.765625 118.515625 91.28125 120.695312 91.796875 122.878906 C 91.902344 123.316406 92.570312 123.128906 92.46875 122.691406 Z M 68.410156 108.527344 C 66.507812 109.179688 64.578125 109.746094 62.625 110.230469 C 62.191406 110.339844 62.375 111.011719 62.8125 110.90625 C 64.761719 110.421875 66.691406 109.851562 68.59375 109.199219 C 69.015625 109.054688 68.832031 108.378906 68.410156 108.527344 Z M 67.328125 104.878906 C 65.171875 105.332031 63.078125 106.019531 61.058594 106.910156 C 60.652344 107.09375 61.003906 107.695312 61.410156 107.515625 C 63.371094 106.648438 65.417969 105.996094 67.515625 105.554688 C 67.953125 105.460938 67.765625 104.785156 67.328125 104.878906 Z M 57.347656 104.644531 C 59.660156 103.859375 62.039062 103.289062 64.453125 102.9375 C 64.894531 102.875 64.707031 102.199219 64.265625 102.265625 C 61.851562 102.613281 59.476562 103.183594 57.164062 103.96875 C 56.742188 104.113281 56.921875 104.789062 57.347656 104.644531 Z M 67.710938 112.085938 C 66.464844 112.390625 65.238281 112.769531 64.035156 113.222656 C 63.859375 113.289062 63.738281 113.457031 63.792969 113.652344 C 63.839844 113.820312 64.042969 113.960938 64.21875 113.894531 C 65.421875 113.445312 66.648438 113.0625 67.898438 112.761719 C 68.332031 112.652344 68.148438 111.980469 67.710938 112.085938 Z M 74.171875 81.484375 C 72.292969 82.511719 70.417969 83.542969 68.539062 84.570312 C 68.144531 84.785156 68.496094 85.386719 68.890625 85.171875 C 70.769531 84.144531 72.644531 83.117188 74.523438 82.089844 C 74.917969 81.875 74.566406 81.269531 74.171875 81.484375 Z M 76.425781 85.09375 C 74.058594 86.050781 71.78125 87.203125 69.617188 88.5625 C 69.238281 88.796875 69.585938 89.402344 69.96875 89.164062 C 72.078125 87.839844 74.300781 86.699219 76.609375 85.769531 C 77.019531 85.605469 76.839844 84.925781 76.425781 85.09375 Z M 74.78125 90.53125 C 73.996094 90.671875 73.214844 90.808594 72.429688 90.945312 C 72.246094 90.976562 72.140625 91.207031 72.1875 91.375 C 72.242188 91.570312 72.429688 91.652344 72.613281 91.621094 C 73.398438 91.480469 74.179688 91.34375 74.964844 91.207031 C 75.148438 91.175781 75.253906 90.945312 75.207031 90.777344 C 75.152344 90.582031 74.964844 90.5 74.78125 90.53125 Z M 47.039062 80.773438 C 50.378906 81.953125 54.0625 82.132812 57.566406 81.914062 C 58.53125 81.855469 59.496094 81.753906 60.453125 81.621094 C 60.640625 81.597656 60.738281 81.355469 60.695312 81.191406 C 60.644531 80.988281 60.453125 80.921875 60.269531 80.949219 C 56.875 81.414062 53.339844 81.472656 49.964844 80.828125 C 49.035156 80.652344 48.117188 80.414062 47.226562 80.101562 C 46.800781 79.953125 46.621094 80.628906 47.039062 80.773438 Z M 36.703125 60.097656 C 37.609375 60.933594 38.265625 62.019531 38.582031 63.203125 C 38.457031 63.09375 38.332031 62.984375 38.199219 62.882812 C 38.058594 62.777344 37.792969 62.851562 37.722656 63.007812 C 37.507812 63.496094 37.445312 63.988281 37.546875 64.511719 C 37.628906 64.953125 38.300781 64.769531 38.214844 64.328125 C 38.183594 64.15625 38.179688 63.976562 38.203125 63.804688 C 38.429688 64.019531 38.644531 64.25 38.828125 64.503906 C 39.007812 64.757812 39.503906 64.707031 39.476562 64.328125 C 39.328125 62.527344 38.519531 60.824219 37.195312 59.605469 C 36.867188 59.300781 36.375 59.792969 36.703125 60.097656 Z M 50.375 62.648438 C 51.039062 62.78125 51.738281 62.054688 51.9375 61.03125 C 52.136719 60.003906 51.761719 59.066406 51.097656 58.9375 C 50.433594 58.804688 49.734375 59.53125 49.535156 60.554688 C 49.335938 61.582031 49.710938 62.519531 50.375 62.648438 Z M 66.839844 67.640625 C 68.195312 67.890625 69.601562 66.390625 69.984375 64.296875 C 70.363281 62.203125 69.570312 60.304688 68.214844 60.054688 C 66.859375 59.808594 65.453125 61.304688 65.074219 63.398438 C 64.695312 65.492188 65.488281 67.390625 66.839844 67.640625 Z M 66.839844 67.640625 " fill-opacity="1" fill-rule="nonzero"/><path fill="#86b9b4" d="M 43.125 485.726562 C 42.09375 481.800781 44.800781 471.804688 40.472656 469.792969 C 38.53125 468.890625 34.203125 469.914062 33.238281 474.273438 C 32.75 476.480469 35.640625 479.375 37.015625 481.53125 C 38.910156 484.507812 35.503906 488.746094 29.359375 485.558594 C 23.214844 482.371094 22.402344 472.660156 27.652344 466.777344 C 34.875 459.023438 47.796875 459.4375 52.117188 469.9375 C 54.15625 474.886719 51.375 480.117188 51.84375 482.640625 C 52.125 484.695312 56.945312 486.871094 54.0625 490.152344 C 49.855469 494.949219 43.78125 488.714844 43.125 485.726562 Z M 57.957031 492.65625 C 54.472656 493.148438 51.457031 496.363281 55.488281 501.402344 C 57.644531 503.605469 62.289062 502.523438 63.410156 499.785156 C 65.179688 494.277344 61.347656 492.175781 57.957031 492.65625 Z M 64.507812 447.523438 C 57.109375 450.296875 53.296875 459.273438 57.246094 464.941406 C 61.195312 470.609375 66.191406 468.4375 65.902344 464.929688 C 65.695312 462.378906 64.484375 458.480469 65.949219 456.75 C 68.839844 453.339844 73.148438 454.441406 74.445312 456.140625 C 77.335938 459.929688 70.269531 467.519531 69.351562 471.46875 C 68.535156 474.421875 71.003906 482.753906 76.964844 480.460938 C 81.046875 478.890625 77.800781 474.730469 78.511719 472.78125 C 79.273438 470.332031 84.175781 466.988281 84.683594 461.667969 C 85.761719 450.367188 74.519531 444.007812 64.507812 447.523438 Z M 79.242188 484.480469 C 75.929688 483.300781 71.757812 484.75 72.972656 491.078125 C 73.851562 494.027344 78.46875 495.222656 80.738281 493.320312 C 84.878906 489.265625 82.46875 485.628906 79.242188 484.480469 Z M 112.859375 447.023438 C 105.242188 444.917969 96.851562 449.925781 96.6875 456.824219 C 96.519531 463.722656 101.839844 464.902344 103.6875 461.898438 C 105.027344 459.71875 106.355469 455.859375 108.5625 455.324219 C 112.917969 454.265625 115.742188 457.6875 115.785156 459.820312 C 115.878906 464.578125 105.679688 466.558594 102.597656 469.207031 C 100.191406 471.113281 97.25 479.292969 103.425781 480.945312 C 107.648438 482.074219 107.488281 476.808594 109.21875 475.648438 C 111.285156 474.121094 117.222656 474.300781 120.785156 470.300781 C 128.34375 461.808594 123.027344 450.066406 112.859375 447.023438 Z M 93.914062 487.171875 C 92.878906 490.070312 95.898438 493.746094 98.859375 493.542969 C 104.605469 492.703125 104.808594 488.347656 102.882812 485.527344 C 100.90625 482.628906 96.679688 481.347656 93.914062 487.171875 Z M 93.914062 487.171875 " fill-opacity="1" fill-rule="nonzero"/><path fill="#f4f0d2" d="M 27.445312 475.039062 C 26.792969 476.636719 27.15625 478.453125 27.777344 480.015625 C 28.277344 481.273438 29.457031 483.25 31.054688 482.9375 C 31.304688 482.886719 31.496094 482.5625 31.402344 482.324219 C 30.953125 481.152344 29.722656 480.472656 29.214844 479.238281 C 28.664062 477.90625 28.65625 476.425781 28.335938 475.039062 C 28.222656 474.550781 27.601562 474.652344 27.445312 475.039062 Z M 46.914062 476.535156 C 47.132812 477.289062 47.230469 478.066406 47.363281 478.84375 C 47.472656 479.460938 47.613281 480.25 47.890625 480.808594 C 47.964844 480.957031 48.214844 480.960938 48.285156 480.808594 C 48.953125 479.386719 48.339844 477.519531 47.707031 476.199219 C 47.492188 475.75 46.777344 476.070312 46.914062 476.535156 Z M 57.621094 496.121094 C 57.597656 496.429688 57.59375 496.222656 57.96875 496.183594 C 58.355469 496.144531 58.734375 496.203125 59.109375 496.304688 C 59.941406 496.527344 60.515625 497.078125 60.4375 497.96875 C 60.359375 498.859375 61.75 498.851562 61.832031 497.96875 C 61.976562 496.332031 60.691406 495.242188 59.203125 494.898438 C 58.148438 494.652344 56.34375 494.714844 56.230469 496.121094 C 56.15625 497.015625 57.550781 497.007812 57.621094 496.121094 Z M 60.476562 454.730469 C 58.621094 456.347656 56.890625 462.117188 59.945312 463.398438 C 60.257812 463.53125 60.566406 463.207031 60.578125 462.917969 C 60.59375 462.398438 60.460938 462.027344 60.285156 461.535156 C 59.984375 460.695312 59.992188 459.789062 60.117188 458.914062 C 60.300781 457.628906 60.902344 456.421875 61.25 455.179688 C 61.378906 454.710938 60.8125 454.4375 60.476562 454.730469 Z M 77.003906 465.066406 C 76.84375 465.835938 76.566406 466.566406 76.324219 467.3125 C 76.132812 467.914062 75.882812 468.6875 75.867188 469.320312 C 75.863281 469.476562 76.070312 469.621094 76.210938 469.515625 C 77.460938 468.566406 77.800781 466.644531 77.859375 465.183594 C 77.875 464.695312 77.101562 464.585938 77.003906 465.066406 Z M 77.3125 487.421875 C 77.242188 487.53125 77.117188 487.519531 77.222656 487.515625 C 77.363281 487.511719 77.507812 487.574219 77.636719 487.621094 C 77.972656 487.738281 78.28125 487.988281 78.542969 488.226562 C 79.164062 488.800781 79.457031 489.554688 78.972656 490.304688 C 78.484375 491.058594 79.691406 491.753906 80.175781 491.003906 C 81.070312 489.621094 80.484375 488.0625 79.316406 487.058594 C 78.519531 486.375 76.863281 485.535156 76.109375 486.722656 C 75.628906 487.480469 76.832031 488.175781 77.3125 487.421875 Z M 105.40625 450.46875 C 103.695312 450.5625 102.257812 451.628906 101.101562 452.832031 C 100.183594 453.78125 98.691406 455.964844 99.816406 457.207031 C 100.003906 457.414062 100.332031 457.382812 100.523438 457.207031 C 100.933594 456.828125 101.011719 456.335938 101.171875 455.820312 C 101.414062 455.015625 101.914062 454.347656 102.480469 453.742188 C 103.417969 452.742188 104.6875 452.117188 105.734375 451.253906 C 106.046875 451 105.792969 450.449219 105.40625 450.46875 Z M 112.527344 468.566406 C 111.957031 469.085938 111.308594 469.511719 110.679688 469.957031 C 110.152344 470.332031 109.507812 470.808594 109.121094 471.320312 C 109.011719 471.460938 109.15625 471.664062 109.316406 471.664062 C 109.9375 471.660156 110.738281 471.273438 111.261719 470.953125 C 112 470.503906 112.613281 469.851562 113.144531 469.179688 C 113.484375 468.75 112.953125 468.179688 112.527344 468.566406 Z M 99.492188 486.800781 C 99.679688 486.730469 99.480469 486.804688 99.445312 486.785156 C 99.539062 486.832031 99.617188 486.957031 99.675781 487.042969 C 99.875 487.332031 99.984375 487.664062 100.070312 488 C 100.269531 488.773438 100.140625 489.71875 99.3125 490.039062 C 98.484375 490.363281 98.84375 491.703125 99.683594 491.378906 C 101.238281 490.769531 101.714844 489.355469 101.449219 487.792969 C 101.285156 486.828125 100.40625 484.980469 99.121094 485.464844 C 98.289062 485.777344 98.648438 487.117188 99.492188 486.800781 Z M 99.492188 486.800781 " fill-opacity="1" fill-rule="nonzero"/><g clip-path="url(#14b185945e)"><path fill="#1b1b19" d="M 55.660156 487.773438 C 55.609375 485.980469 53.832031 484.613281 52.871094 483.277344 C 51.6875 481.628906 53.140625 478.332031 53.375 476.515625 C 53.746094 473.640625 53.46875 471.085938 52.203125 468.464844 C 50.367188 464.652344 46.789062 462.015625 42.699219 461.078125 C 36.234375 459.59375 29.085938 462.917969 25.59375 468.398438 C 22.015625 474.015625 22.859375 482.71875 29.007812 486.15625 C 29.011719 486.160156 29.015625 486.160156 29.015625 486.160156 C 32.078125 487.625 36.675781 488.273438 38.089844 484.320312 C 38.628906 482.816406 37.792969 481.394531 36.949219 480.21875 C 34.996094 477.480469 32.507812 474.851562 35.351562 471.703125 C 36.820312 470.078125 39.878906 469.445312 41.296875 471.40625 C 42.589844 473.199219 42.363281 476.046875 42.324219 478.128906 C 42.25 481.789062 41.554688 485.46875 43.84375 488.605469 C 45.921875 491.457031 49.613281 493.675781 53.058594 491.902344 C 54.566406 491.125 55.703125 489.464844 55.660156 487.773438 Z M 45.929688 488.898438 C 42.59375 485.710938 43.695312 481.183594 43.730469 477.042969 C 43.757812 474.078125 43.476562 469.839844 40.007812 468.914062 C 36.695312 468.027344 32.910156 471.003906 32.542969 474.273438 C 32.230469 477.011719 34.628906 479.355469 36.097656 481.410156 C 37.066406 482.761719 37.109375 484.308594 35.679688 485.375 C 33.945312 486.671875 31.417969 485.777344 29.710938 484.957031 C 24.761719 482.191406 24.019531 476.007812 25.808594 471.089844 C 27.664062 465.984375 33.113281 462.710938 38.347656 462.191406 C 43.476562 461.679688 48.15625 464.25 50.71875 468.632812 C 52.511719 471.699219 52.304688 474.96875 51.652344 478.320312 C 51.316406 480.054688 50.71875 481.945312 51.46875 483.644531 C 52.332031 485.601562 55.246094 486.8125 53.855469 489.292969 C 51.953125 492.691406 47.996094 490.875 45.929688 488.898438 Z M 57.957031 491.960938 C 57.929688 491.964844 57.90625 491.972656 57.878906 491.980469 C 57.84375 491.980469 57.808594 491.980469 57.773438 491.988281 C 54.972656 492.460938 52.371094 494.644531 52.933594 497.734375 C 53.601562 501.402344 56.277344 503.792969 60.019531 503.117188 C 63.546875 502.480469 65.015625 499.066406 64.394531 495.804688 C 63.835938 492.867188 60.628906 491.65625 57.957031 491.960938 Z M 60.039062 501.679688 C 57.109375 502.617188 55.074219 500.460938 54.355469 497.796875 C 53.683594 495.292969 55.914062 493.730469 58.070312 493.339844 C 59.90625 493.15625 61.75 493.613281 62.734375 495.292969 C 64.191406 497.777344 62.558594 500.875 60.039062 501.679688 Z M 62.472656 447.695312 C 56.375 450.828125 52.6875 459.210938 56.644531 465.289062 C 56.648438 465.300781 56.65625 465.304688 56.664062 465.3125 C 58.675781 468.007812 62.4375 470.75 65.535156 467.910156 C 66.574219 466.953125 66.691406 465.480469 66.515625 464.175781 C 66.035156 460.621094 64.882812 456.726562 69.335938 455.367188 C 72.035156 454.542969 74.773438 456.300781 74.371094 459.164062 C 74.03125 461.570312 72.507812 463.84375 71.3125 465.902344 C 69.503906 469.023438 68.011719 471.585938 68.816406 475.246094 C 69.496094 478.335938 71.605469 481.390625 75.007812 481.550781 C 76.644531 481.625 78.316406 480.804688 79.277344 479.519531 C 80.300781 478.152344 79.5625 475.964844 79.238281 474.507812 C 78.753906 472.347656 80.597656 470.789062 81.839844 469.238281 C 83.316406 467.394531 84.523438 465.433594 85.144531 463.140625 C 86.277344 458.945312 84.796875 454.261719 82.085938 451.011719 C 77.453125 445.460938 68.6875 444.5 62.472656 447.695312 Z M 84.039062 461.019531 C 83.9375 463.980469 82.300781 466.449219 80.511719 468.683594 C 79.476562 469.980469 78.171875 471.269531 77.757812 472.921875 C 77.332031 474.632812 78.570312 476.417969 78.324219 478.167969 C 78.089844 479.839844 75.6875 480.304688 74.320312 480.101562 C 73.074219 479.914062 72.128906 478.9375 71.449219 477.957031 C 68.820312 474.167969 70.15625 470.671875 72.230469 467.09375 C 73.796875 464.386719 77.109375 459.820312 75.457031 456.496094 C 73.863281 453.292969 68.992188 453.09375 66.46875 455.285156 C 63.9375 457.480469 64.515625 460.308594 64.996094 463.324219 C 65.265625 465.011719 65.464844 466.785156 63.570312 467.5625 C 61.285156 468.492188 59.039062 466.191406 57.847656 464.589844 C 54.761719 459.851562 56.957031 454.03125 60.84375 450.503906 C 64.980469 446.746094 71.542969 446.425781 76.5 448.589844 C 81.511719 450.777344 84.222656 455.683594 84.039062 461.019531 Z M 79.429688 483.8125 C 77.003906 483.011719 74.359375 483.433594 72.882812 485.652344 C 71.035156 488.425781 72.019531 492.601562 74.867188 494.183594 C 78.152344 496.015625 81.484375 494.425781 83.082031 491.304688 C 84.746094 488.0625 82.4375 484.988281 79.429688 483.8125 Z M 81.644531 491.0625 C 80.25 493.78125 77.082031 494.269531 74.730469 492.449219 C 72.964844 491.085938 73.03125 487.644531 74.351562 485.976562 C 75.472656 484.558594 77.511719 484.640625 79.058594 485.148438 C 81.628906 486.15625 82.964844 488.488281 81.644531 491.0625 Z M 114.214844 446.753906 C 106.800781 443.785156 96.476562 448.300781 95.988281 456.820312 C 95.988281 456.832031 95.992188 456.839844 95.988281 456.847656 C 96.003906 460.027344 97.175781 463.878906 100.902344 464.144531 C 104.800781 464.421875 105.683594 458.597656 107.828125 456.492188 C 110.179688 454.1875 114.835938 456.992188 115.085938 459.820312 C 115.285156 462.035156 112.335938 463.507812 110.730469 464.355469 C 107.679688 465.964844 103.46875 466.8125 101.246094 469.628906 C 99.457031 471.898438 98.3125 475.699219 99.496094 478.46875 C 100.683594 481.253906 104.703125 483.070312 107.085938 480.636719 C 108.140625 479.5625 108.457031 477.945312 109.199219 476.675781 C 110.105469 475.128906 113.617188 474.878906 115.175781 474.402344 C 119.757812 473 122.992188 469.742188 124.476562 465.207031 C 127.050781 457.335938 121.324219 449.59375 114.214844 446.753906 Z M 118.480469 471.378906 C 116.488281 472.785156 113.992188 473.3125 111.675781 473.933594 C 110.257812 474.3125 108.871094 474.738281 108 475.976562 C 107.023438 477.355469 106.929688 479.628906 105.148438 480.320312 C 102.222656 481.453125 100.394531 477.847656 100.453125 475.609375 C 100.570312 471.242188 103.523438 469.136719 107.125 467.53125 C 110.078125 466.214844 114.824219 464.777344 116.148438 461.453125 C 117.417969 458.261719 114.359375 454.917969 111.226562 454.523438 C 106.828125 453.972656 105.398438 457.203125 103.621094 460.597656 C 102.859375 462.054688 101.867188 463.101562 100.101562 462.609375 C 97.777344 461.957031 97.386719 458.773438 97.382812 456.824219 C 97.738281 450.640625 104.003906 447.199219 109.664062 447.238281 C 115.300781 447.277344 120.574219 451.523438 122.695312 456.546875 C 124.894531 461.746094 123.117188 468.113281 118.480469 471.378906 Z M 96.894531 482.8125 C 93.398438 484.535156 91.949219 488.671875 94.285156 491.871094 C 96.472656 494.867188 100.324219 494.722656 103.039062 492.539062 C 105.316406 490.699219 104.90625 487.375 103.484375 485.179688 C 102.019531 483.140625 99.402344 481.574219 96.894531 482.8125 Z M 102.8125 490.65625 C 102.289062 491.644531 101.203125 492.1875 100.191406 492.535156 C 98.433594 493.144531 96.980469 492.671875 95.695312 491.394531 C 93.347656 489.0625 94.75 485.683594 97.273438 484.167969 C 99.121094 483.0625 101.191406 484.363281 102.28125 485.878906 C 103.214844 487.324219 103.660156 489.0625 102.8125 490.65625 Z M 102.8125 490.65625 " fill-opacity="1" fill-rule="nonzero"/></g></svg>