<svg xmlns="http://www.w3.org/2000/svg" xmlns:xlink="http://www.w3.org/1999/xlink" width="200" zoomAndPan="magnify" viewBox="0 0 150 599.999999" height="800" preserveAspectRatio="xMidYMid meet" version="1.0"><defs><clipPath id="391f7ca22b"><path d="M 18 505 L 135 505 L 135 584.980469 L 18 584.980469 Z M 18 505 " clip-rule="nonzero"/></clipPath></defs><g clip-path="url(#391f7ca22b)"><path fill="#0e7658" d="M 133.730469 560.449219 C 133.671875 560.128906 133.613281 559.808594 133.550781 559.488281 C 132.824219 555.628906 131.847656 551.660156 130.804688 547.910156 C 127.933594 537.597656 124.203125 528.691406 124.203125 528.691406 C 123.871094 528 122.925781 524.660156 122.925781 524.660156 C 122.925781 524.660156 116.828125 513.195312 116.058594 513.195312 C 115.289062 513.195312 111.4375 512.132812 111.4375 512.132812 L 103.566406 507.757812 L 102.03125 508.054688 L 95.394531 505.453125 L 75.175781 508.023438 L 61.820312 508.070312 C 61.820312 508.070312 44.75 510.882812 40.125 520.316406 C 34.914062 529.0625 33.730469 530.007812 33.730469 530.007812 C 33.730469 530.007812 25.757812 527.550781 23.78125 527.71875 C 20.703125 537.648438 11.46875 574.683594 31.597656 574.683594 C 40.625 574.683594 46.605469 568.171875 50.453125 560.988281 C 50.453125 561 50.457031 561.015625 50.457031 561.03125 C 50.460938 561.078125 50.503906 561.144531 50.464844 561.171875 C 50.28125 561.328125 51.890625 582.441406 52.867188 582.839844 C 54.949219 583.691406 100.070312 584.703125 102.914062 582.929688 C 103.425781 582.609375 103.207031 580.8125 103.703125 578.242188 C 107.769531 581.273438 111.816406 583.203125 115.574219 584.179688 C 116.410156 584.398438 117.230469 584.566406 118.035156 584.691406 C 119.640625 584.945312 121.179688 585.011719 122.628906 584.914062 C 128.785156 584.496094 133.292969 581.058594 134.382812 575.628906 C 135.179688 571.640625 134.753906 566.203125 133.730469 560.449219 Z M 105.933594 558.34375 L 106.167969 551.726562 L 108.65625 559.527344 Z M 105.933594 558.34375 " fill-opacity="1" fill-rule="nonzero"/></g><path fill="#c45b52" d="M 124.308594 527.378906 C 124.292969 527.824219 124.257812 528.261719 124.203125 528.691406 C 120.984375 523.207031 118.277344 518.21875 114.992188 516.089844 C 117.417969 527.617188 115.855469 537.480469 113.34375 543.261719 C 111.363281 547.8125 106.40625 549.183594 103.75 548.050781 C 101.765625 546.367188 101.710938 543.734375 101.859375 542.292969 C 101.441406 544.523438 100.066406 547.832031 97.289062 547 C 93.734375 545.933594 96.164062 535.949219 97.585938 525.84375 C 99.003906 515.738281 95.167969 508.070312 95.167969 508.070312 C 95.167969 508.070312 89.472656 507.285156 69.34375 506.8125 C 53.464844 506.441406 53.449219 483.609375 54.421875 473.898438 C 56.710938 461.097656 61.402344 453.332031 69.835938 449.808594 C 80.15625 445.496094 88.378906 448.359375 88.378906 448.359375 C 88.378906 448.359375 98.71875 448.757812 103.660156 459.457031 C 107.027344 466.75 107.46875 476.035156 107.234375 485.539062 C 106.523438 514.378906 124.839844 507.886719 124.308594 527.378906 Z M 124.308594 527.378906 C 124.292969 527.824219 124.257812 528.261719 124.203125 528.691406 C 120.984375 523.207031 118.277344 518.21875 114.992188 516.089844 C 117.417969 527.617188 115.855469 537.480469 113.34375 543.261719 C 111.363281 547.8125 106.40625 549.183594 103.75 548.050781 C 101.765625 546.367188 101.710938 543.734375 101.859375 542.292969 C 101.441406 544.523438 100.066406 547.832031 97.289062 547 C 93.734375 545.933594 96.164062 535.949219 97.585938 525.84375 C 99.003906 515.738281 95.167969 508.070312 95.167969 508.070312 C 95.167969 508.070312 89.472656 507.285156 69.34375 506.8125 C 53.464844 506.441406 53.449219 483.609375 54.421875 473.898438 C 56.710938 461.097656 61.402344 453.332031 69.835938 449.808594 C 80.15625 445.496094 88.378906 448.359375 88.378906 448.359375 C 88.378906 448.359375 98.71875 448.757812 103.660156 459.457031 C 107.027344 466.75 107.46875 476.035156 107.234375 485.539062 C 106.523438 514.378906 124.839844 507.886719 124.308594 527.378906 Z M 124.308594 527.378906 " fill-opacity="1" fill-rule="nonzero"/><path fill="#feac7c" d="M 46.3125 510.507812 C 46.03125 513.085938 45.800781 515.628906 45.601562 516.769531 C 45.21875 518.957031 38.660156 526.226562 37.5625 528.238281 C 37.34375 528.636719 36.917969 529.636719 36.726562 530.097656 C 30.132812 530.539062 23.871094 527.492188 23.871094 527.492188 L 24.492188 524.933594 C 24.492188 524.933594 25.265625 511.96875 26.425781 507.582031 C 26.804688 506.136719 27.875 504.414062 28.378906 504.101562 C 28.917969 503.769531 30.617188 503.222656 31.097656 505.015625 C 31.101562 505.121094 31.105469 505.21875 31.113281 505.324219 C 31.371094 504.308594 32.039062 503.703125 32.6875 503.347656 C 33.28125 503.023438 34.375 502.996094 34.988281 504.183594 C 35.171875 504.535156 35.179688 504.957031 35.160156 505.355469 C 35.152344 505.496094 35.140625 505.632812 35.132812 505.769531 C 35.132812 505.769531 35.269531 499.871094 38.257812 499.457031 C 39.039062 499.347656 39.882812 500.121094 40.65625 501.320312 C 41.355469 499.667969 41.90625 498.769531 42.640625 498.039062 C 43.929688 496.753906 46.839844 493.410156 47.613281 495.554688 C 48.382812 497.683594 44.640625 501.195312 43.585938 504.300781 C 43.308594 505.128906 43.085938 505.890625 42.90625 506.5625 C 43.035156 507.035156 43.128906 507.476562 43.1875 507.863281 C 45.714844 503.355469 47.847656 503.382812 48.324219 504.359375 C 48.855469 505.453125 46.566406 508.148438 46.3125 510.507812 Z M 99.183594 551.503906 C 98.515625 549.066406 95.851562 546.808594 91.9375 545.25 C 90.929688 544.847656 89.863281 544.660156 88.960938 544.511719 L 88.910156 547.589844 C 88.832031 547.554688 88.726562 547.488281 88.617188 547.40625 C 85.101562 544.765625 81.855469 542.804688 78.757812 540.851562 C 76.507812 539.433594 71.441406 538.957031 75.441406 542.742188 C 70.691406 539.550781 69.097656 542.953125 73.394531 546.222656 C 69.753906 544.164062 69.777344 548.597656 74.125 551.757812 C 71.804688 550.660156 70.140625 552.472656 75.964844 557.617188 C 82.683594 563.550781 95.097656 568.390625 95.097656 568.390625 L 101.351562 557.148438 C 101.351562 557.148438 100.074219 554.761719 99.183594 551.503906 Z M 100.152344 479.472656 C 99.144531 476.832031 96.832031 478.304688 96.832031 478.304688 C 92.542969 478.21875 88.574219 468.046875 88.226562 461.710938 C 88.21875 461.519531 87.972656 461.464844 87.878906 461.632812 C 83.109375 470.484375 69.332031 478.414062 64.574219 473.976562 C 64.574219 473.976562 62.625 471.882812 60.953125 474.160156 C 59.40625 476.261719 59.398438 481.371094 63.65625 481.742188 C 64.1875 485.628906 66.234375 490.429688 70.132812 492.949219 C 70.25 493.023438 70.375 493.101562 70.5 493.179688 L 70.5 502.003906 C 70.5 503.957031 69.21875 505.679688 67.347656 506.246094 L 61.820312 508.070312 C 62.914062 510.691406 64.894531 512.714844 67.121094 514.257812 C 73.964844 519.007812 83.027344 519.007812 89.871094 514.257812 C 92.09375 512.714844 94.078125 510.691406 95.167969 508.070312 L 88.484375 505.828125 C 87.4375 505.507812 86.722656 504.542969 86.722656 503.453125 L 86.722656 494.703125 C 90.292969 493.210938 92.804688 489.894531 94.761719 485.78125 C 97.953125 487.378906 101.144531 482.082031 100.152344 479.472656 Z M 100.152344 479.472656 " fill-opacity="1" fill-rule="nonzero"/><path fill="#f3d4b7" d="M 58.207031 486.554688 L 33.378906 523.015625 L 30.25 524.941406 C 30.039062 525.074219 29.777344 524.882812 29.832031 524.640625 L 30.636719 521.15625 L 36.078125 513.167969 C 36.269531 513.375 36.503906 513.445312 36.777344 513.285156 C 37.542969 512.839844 37.566406 511.808594 37.480469 511.105469 L 39.769531 507.746094 C 39.785156 507.765625 39.796875 507.785156 39.8125 507.804688 C 41.136719 509.464844 43.328125 509.363281 43.335938 508.113281 C 43.34375 507.09375 42.820312 505.507812 42.253906 504.09375 L 55.464844 484.695312 C 55.980469 483.9375 57.007812 483.742188 57.765625 484.253906 C 58.523438 484.769531 58.722656 485.796875 58.207031 486.554688 Z M 75.964844 557.617188 C 70.140625 552.472656 71.804688 550.660156 74.125 551.757812 C 69.777344 548.597656 69.753906 544.164062 73.394531 546.222656 C 69.097656 542.953125 70.691406 539.550781 75.441406 542.742188 C 71.441406 538.957031 76.507812 539.433594 78.757812 540.851562 C 81.855469 542.804688 85.101562 544.765625 88.617188 547.40625 C 88.722656 547.484375 88.820312 547.546875 88.898438 547.582031 L 89.117188 526.550781 L 56.910156 526.789062 L 57.5 571.699219 L 88.644531 572.171875 L 88.714844 565.546875 C 84.390625 563.40625 79.285156 560.550781 75.964844 557.617188 Z M 75.964844 557.617188 " fill-opacity="1" fill-rule="nonzero"/><path fill="#000000" d="M 78.046875 490.335938 C 78.121094 490.351562 78.191406 490.359375 78.265625 490.359375 C 79.035156 490.359375 79.761719 489.585938 79.972656 488.488281 C 80.203125 487.289062 79.722656 486.222656 78.875 486.058594 C 78.441406 485.976562 78 486.140625 77.628906 486.523438 C 77.296875 486.871094 77.054688 487.359375 76.949219 487.90625 C 76.71875 489.105469 77.199219 490.175781 78.046875 490.335938 Z M 77.617188 488.035156 C 77.699219 487.625 77.878906 487.246094 78.121094 486.996094 C 78.226562 486.886719 78.425781 486.71875 78.660156 486.71875 C 78.6875 486.71875 78.714844 486.71875 78.746094 486.726562 C 79.144531 486.800781 79.472656 487.492188 79.304688 488.359375 C 79.152344 489.144531 78.625 489.753906 78.175781 489.671875 C 77.777344 489.59375 77.449219 488.902344 77.617188 488.035156 Z M 40.695312 500.667969 C 40.527344 500.753906 40.460938 500.957031 40.546875 501.125 C 40.570312 501.171875 43.007812 505.988281 42.996094 508.113281 C 42.992188 508.371094 42.851562 508.550781 42.574219 508.644531 C 41.945312 508.863281 40.855469 508.566406 40.078125 507.59375 C 38.933594 506.152344 38.1875 503.992188 38.179688 503.972656 C 38.121094 503.792969 37.929688 503.699219 37.75 503.757812 C 37.570312 503.820312 37.476562 504.011719 37.535156 504.191406 C 37.558594 504.257812 37.957031 505.410156 38.632812 506.621094 L 38.367188 508.449219 C 38.339844 508.632812 38.46875 508.808594 38.652344 508.832031 C 38.671875 508.835938 38.6875 508.835938 38.703125 508.835938 C 38.871094 508.835938 39.015625 508.714844 39.039062 508.546875 L 39.1875 507.527344 C 39.304688 507.691406 39.421875 507.859375 39.546875 508.015625 C 40.214844 508.855469 41.078125 509.28125 41.832031 509.371094 C 41.375 510.160156 40.304688 512.054688 39.816406 513.535156 L 39.082031 514.636719 C 39.226562 514.578125 39.371094 514.523438 39.5 514.472656 C 39.785156 514.363281 40.027344 514.269531 40.214844 514.1875 C 40.304688 514.148438 40.375 514.070312 40.40625 513.976562 C 40.964844 512.175781 42.621094 509.378906 42.636719 509.351562 C 42.640625 509.34375 42.640625 509.332031 42.644531 509.324219 C 42.695312 509.3125 42.75 509.304688 42.796875 509.289062 C 43.34375 509.101562 43.671875 508.660156 43.675781 508.117188 C 43.691406 505.828125 41.257812 501.019531 41.152344 500.816406 C 41.066406 500.648438 40.863281 500.582031 40.695312 500.667969 Z M 37.671875 512.792969 C 38.464844 511.304688 36.082031 505.785156 35.59375 504.695312 C 35.519531 504.523438 35.316406 504.445312 35.144531 504.523438 C 34.972656 504.597656 34.894531 504.800781 34.972656 504.972656 C 36.046875 507.382812 37.5625 511.546875 37.070312 512.476562 C 36.902344 512.789062 36.570312 512.828125 36.324219 512.808594 C 35.285156 512.710938 33.796875 511.433594 32.988281 508.855469 C 32.972656 508.796875 32.9375 508.753906 32.898438 508.714844 C 32.394531 507.253906 31.8125 505.820312 31.410156 504.882812 C 31.335938 504.710938 31.136719 504.628906 30.964844 504.703125 C 30.789062 504.773438 30.710938 504.976562 30.785156 505.148438 C 32.558594 509.316406 33.648438 513.171875 33.160156 513.566406 C 32.789062 513.867188 32.425781 513.960938 32.050781 513.851562 C 30.578125 513.417969 29.214844 510.125 28.8125 508.894531 C 28.753906 508.714844 28.5625 508.617188 28.382812 508.675781 C 28.207031 508.734375 28.109375 508.925781 28.164062 509.105469 C 28.230469 509.300781 29.742188 513.878906 31.855469 514.5 C 32.023438 514.550781 32.191406 514.578125 32.359375 514.578125 C 32.78125 514.578125 33.195312 514.414062 33.589844 514.09375 C 33.972656 513.785156 33.980469 512.949219 33.785156 511.886719 C 34.589844 512.890625 35.496094 513.414062 36.261719 513.484375 C 36.320312 513.488281 36.382812 513.492188 36.4375 513.492188 C 36.988281 513.492188 37.433594 513.242188 37.671875 512.792969 Z M 80.109375 545.578125 C 79.0625 544.953125 78.023438 544.320312 77.023438 543.621094 C 76.242188 543.074219 75.484375 542.5 74.734375 541.914062 C 74.394531 541.644531 73.910156 542.125 74.253906 542.394531 C 75.460938 543.339844 76.691406 544.253906 77.984375 545.078125 C 79.058594 545.761719 80.164062 546.394531 81.246094 547.0625 C 82.144531 547.613281 83.035156 548.1875 83.914062 548.769531 C 84.28125 549.011719 84.621094 548.425781 84.257812 548.183594 C 82.894531 547.28125 81.511719 546.417969 80.109375 545.578125 Z M 81.71875 551.617188 C 79.226562 550.085938 76.84375 548.425781 74.492188 546.699219 C 73.726562 546.136719 72.960938 545.578125 72.191406 545.019531 C 71.835938 544.761719 71.496094 545.351562 71.847656 545.609375 C 74.210938 547.316406 76.523438 549.085938 78.964844 550.679688 C 79.757812 551.199219 80.566406 551.703125 81.375 552.203125 C 81.75 552.433594 82.089844 551.84375 81.71875 551.617188 Z M 81.421875 556.242188 C 80.152344 555.582031 78.9375 554.839844 77.785156 553.992188 C 76.671875 553.171875 75.597656 552.300781 74.488281 551.476562 C 74.136719 551.214844 73.796875 551.804688 74.144531 552.0625 C 75.253906 552.886719 76.328125 553.761719 77.441406 554.578125 C 78.59375 555.425781 79.808594 556.167969 81.078125 556.828125 C 81.464844 557.03125 81.808594 556.445312 81.421875 556.242188 Z M 93.136719 549.570312 C 91.867188 548.867188 90.542969 548.265625 89.246094 547.613281 C 88.855469 547.417969 88.507812 548.003906 88.902344 548.203125 C 90.199219 548.851562 91.523438 549.453125 92.792969 550.160156 C 93.179688 550.371094 93.523438 549.785156 93.136719 549.570312 Z M 40.929688 529.339844 C 40.164062 528.785156 37.460938 528.457031 37.460938 528.457031 C 37.460938 528.457031 36.882812 529.386719 36.726562 530.097656 C 36.726562 530.097656 39.226562 530.375 40.457031 530.089844 C 40.414062 532.988281 40.125 549.53125 39.164062 560.207031 C 39.144531 560.394531 39.285156 560.558594 39.472656 560.574219 C 39.480469 560.574219 39.492188 560.574219 39.503906 560.574219 C 39.675781 560.574219 39.824219 560.441406 39.839844 560.265625 C 40.894531 548.570312 41.144531 529.847656 41.144531 529.660156 C 41.148438 529.511719 41.054688 529.390625 40.929688 529.339844 Z M 125.589844 565.234375 C 124.929688 564.996094 113.222656 560.722656 106.273438 558.351562 L 106.746094 548.667969 C 106.757812 548.480469 106.609375 548.324219 106.421875 548.3125 C 106.25 548.296875 106.074219 548.449219 106.066406 548.636719 L 105.601562 558.125 C 103.523438 557.417969 101.960938 556.921875 101.414062 556.816406 C 101.277344 556.789062 101.136719 556.847656 101.0625 556.96875 C 98.9375 560.347656 94.132812 569.542969 93.367188 571.265625 C 93.308594 571.394531 93.335938 571.546875 93.4375 571.644531 C 95.75 573.953125 103.265625 578.421875 103.582031 578.613281 C 103.636719 578.644531 103.699219 578.660156 103.757812 578.660156 C 103.871094 578.660156 103.988281 578.601562 104.050781 578.492188 C 104.144531 578.332031 104.09375 578.121094 103.929688 578.027344 C 103.855469 577.984375 96.53125 573.628906 94.085938 571.328125 C 95.011719 569.367188 99.335938 561.046875 101.511719 557.535156 C 104.71875 558.347656 125.144531 565.796875 125.355469 565.875 C 125.53125 565.9375 125.726562 565.847656 125.792969 565.671875 C 125.855469 565.496094 125.765625 565.300781 125.589844 565.234375 Z M 116.707031 560.101562 C 116.738281 560.101562 116.773438 560.097656 116.804688 560.089844 C 116.855469 560.074219 122.105469 558.566406 123.933594 558.566406 C 124.121094 558.566406 124.273438 558.414062 124.273438 558.226562 C 124.273438 558.039062 124.121094 557.886719 123.933594 557.886719 C 122.011719 557.886719 116.832031 559.375 116.613281 559.4375 C 116.433594 559.488281 116.328125 559.679688 116.382812 559.859375 C 116.425781 560.007812 116.5625 560.101562 116.707031 560.101562 Z M 50.027344 531.261719 C 49.667969 524.371094 46.074219 520.015625 45.921875 519.832031 C 45.800781 519.6875 45.585938 519.671875 45.441406 519.789062 C 45.296875 519.910156 45.277344 520.125 45.398438 520.269531 C 45.433594 520.3125 49 524.632812 49.347656 531.296875 C 49.488281 534.074219 49.59375 536.367188 49.667969 538.117188 C 48.308594 534.800781 45.625 529.949219 45.484375 529.695312 C 45.394531 529.53125 45.1875 529.472656 45.019531 529.5625 C 44.855469 529.65625 44.796875 529.863281 44.886719 530.027344 C 44.929688 530.101562 49.132812 537.695312 49.707031 540.332031 C 49.730469 540.4375 49.753906 540.570312 49.773438 540.714844 C 49.804688 541.570312 49.820312 542.03125 49.820312 542.042969 C 49.820312 542.132812 49.859375 542.210938 49.917969 542.269531 C 50.253906 547.445312 50.175781 559.617188 50.175781 559.761719 C 50.171875 559.949219 50.324219 560.101562 50.511719 560.101562 C 50.511719 560.101562 50.515625 560.101562 50.515625 560.101562 C 50.703125 560.101562 50.855469 559.953125 50.855469 559.765625 C 50.859375 559.109375 50.957031 544.410156 50.453125 540.667969 C 50.390625 538.972656 50.257812 535.742188 50.027344 531.261719 Z M 82.382812 526.171875 C 82.40625 526.160156 82.410156 526.15625 82.398438 526.160156 C 82.394531 526.164062 82.390625 526.167969 82.386719 526.171875 C 82.382812 526.171875 82.382812 526.171875 82.382812 526.171875 Z M 82.660156 526.054688 C 82.679688 526.058594 82.691406 526.058594 82.695312 526.054688 C 82.683594 526.054688 82.671875 526.054688 82.660156 526.054688 Z M 82.386719 527.039062 C 82.410156 527.0625 82.4375 527.066406 82.386719 527.039062 Z M 82.515625 527.117188 C 82.515625 527.117188 82.519531 527.117188 82.519531 527.117188 C 82.488281 527.101562 82.484375 527.101562 82.496094 527.109375 C 82.496094 527.109375 82.5 527.109375 82.5 527.109375 C 82.507812 527.113281 82.511719 527.117188 82.515625 527.117188 Z M 82.480469 526.113281 C 82.488281 526.109375 82.5 526.101562 82.511719 526.097656 C 82.515625 526.097656 82.515625 526.097656 82.519531 526.09375 C 82.550781 526.082031 82.585938 526.074219 82.617188 526.066406 C 82.632812 526.0625 82.648438 526.058594 82.660156 526.054688 C 82.65625 526.054688 82.65625 526.054688 82.648438 526.054688 C 82.652344 526.054688 82.65625 526.054688 82.660156 526.054688 C 82.664062 526.054688 82.664062 526.054688 82.664062 526.054688 C 82.6875 526.050781 82.707031 526.054688 82.695312 526.054688 C 82.746094 526.054688 82.796875 526.050781 82.847656 526.054688 C 82.863281 526.058594 82.878906 526.0625 82.894531 526.066406 C 82.925781 526.070312 82.957031 526.082031 82.984375 526.089844 C 83 526.097656 83.011719 526.105469 83.023438 526.109375 C 83.058594 526.128906 83.089844 526.148438 83.121094 526.171875 C 83.265625 526.277344 83.507812 526.203125 83.585938 526.050781 C 83.679688 525.875 83.617188 525.699219 83.464844 525.585938 C 83.167969 525.371094 82.757812 525.324219 82.410156 525.417969 C 82.03125 525.519531 81.738281 525.785156 81.59375 526.148438 C 81.457031 526.488281 81.5 526.894531 81.667969 527.214844 C 81.832031 527.53125 82.15625 527.757812 82.507812 527.816406 C 82.929688 527.878906 83.386719 527.761719 83.675781 527.433594 C 83.792969 527.300781 83.820312 527.082031 83.675781 526.953125 C 83.546875 526.835938 83.320312 526.808594 83.195312 526.953125 C 83.175781 526.976562 83.152344 527 83.128906 527.019531 C 83.121094 527.027344 83.117188 527.035156 83.109375 527.039062 C 83.082031 527.054688 83.058594 527.074219 83.03125 527.085938 C 83.019531 527.09375 83.011719 527.097656 83 527.105469 C 82.949219 527.113281 82.898438 527.136719 82.84375 527.148438 C 82.847656 527.148438 82.84375 527.148438 82.832031 527.152344 C 82.832031 527.152344 82.828125 527.152344 82.828125 527.152344 C 82.816406 527.15625 82.804688 527.15625 82.792969 527.160156 C 82.800781 527.15625 82.804688 527.15625 82.8125 527.152344 C 82.777344 527.15625 82.746094 527.15625 82.710938 527.15625 C 82.679688 527.15625 82.648438 527.152344 82.617188 527.148438 C 82.726562 527.152344 82.632812 527.148438 82.597656 527.140625 C 82.570312 527.132812 82.546875 527.125 82.519531 527.117188 C 82.527344 527.121094 82.527344 527.121094 82.535156 527.128906 C 82.527344 527.121094 82.511719 527.117188 82.5 527.109375 C 82.5 527.109375 82.496094 527.109375 82.496094 527.109375 C 82.492188 527.105469 82.488281 527.105469 82.484375 527.101562 C 82.457031 527.089844 82.429688 527.074219 82.40625 527.054688 C 82.394531 527.050781 82.382812 527.039062 82.375 527.035156 C 82.378906 527.035156 82.378906 527.039062 82.386719 527.039062 C 82.382812 527.039062 82.382812 527.039062 82.382812 527.039062 C 82.363281 527.019531 82.34375 527 82.324219 526.980469 C 82.3125 526.96875 82.304688 526.953125 82.292969 526.941406 C 82.300781 526.949219 82.300781 526.949219 82.304688 526.953125 C 82.285156 526.925781 82.269531 526.898438 82.253906 526.871094 C 82.25 526.863281 82.246094 526.855469 82.242188 526.84375 C 82.222656 526.789062 82.207031 526.734375 82.195312 526.675781 C 82.195312 526.664062 82.195312 526.65625 82.195312 526.644531 C 82.191406 526.617188 82.191406 526.589844 82.195312 526.558594 C 82.195312 526.53125 82.199219 526.503906 82.199219 526.476562 C 82.199219 526.484375 82.199219 526.488281 82.199219 526.496094 C 82.199219 526.492188 82.199219 526.492188 82.199219 526.492188 C 82.203125 526.472656 82.207031 526.453125 82.214844 526.4375 C 82.21875 526.414062 82.234375 526.382812 82.238281 526.359375 C 82.242188 526.351562 82.246094 526.34375 82.25 526.335938 C 82.265625 526.308594 82.277344 526.285156 82.292969 526.261719 C 82.292969 526.261719 82.296875 526.261719 82.296875 526.257812 C 82.304688 526.25 82.316406 526.238281 82.324219 526.226562 C 82.34375 526.207031 82.363281 526.191406 82.382812 526.175781 C 82.375 526.175781 82.375 526.179688 82.367188 526.183594 C 82.375 526.179688 82.378906 526.175781 82.386719 526.171875 C 82.386719 526.167969 82.390625 526.167969 82.390625 526.164062 C 82.398438 526.160156 82.394531 526.164062 82.398438 526.160156 C 82.402344 526.160156 82.402344 526.15625 82.40625 526.15625 C 82.429688 526.140625 82.453125 526.125 82.480469 526.113281 Z M 82.199219 526.496094 C 82.195312 526.523438 82.199219 526.554688 82.199219 526.496094 Z M 82.304688 526.953125 C 82.324219 526.980469 82.34375 526.988281 82.304688 526.953125 Z M 82.832031 527.152344 C 82.835938 527.152344 82.839844 527.148438 82.84375 527.148438 C 82.84375 527.148438 82.832031 527.148438 82.8125 527.152344 C 82.8125 527.152344 82.816406 527.152344 82.816406 527.152344 C 82.820312 527.152344 82.828125 527.152344 82.832031 527.152344 Z M 85.757812 526.992188 C 85.761719 527 85.769531 527.003906 85.773438 527.011719 C 85.773438 527.007812 85.765625 526.996094 85.75 526.984375 C 85.753906 526.984375 85.753906 526.988281 85.753906 526.992188 C 85.757812 526.992188 85.757812 526.992188 85.757812 526.992188 Z M 86.363281 526.121094 C 86.382812 526.132812 86.394531 526.136719 86.390625 526.136719 C 86.382812 526.132812 86.378906 526.128906 86.371094 526.125 C 86.367188 526.125 86.363281 526.125 86.363281 526.121094 Z M 85.984375 527.105469 C 85.996094 527.105469 86.007812 527.105469 86.019531 527.105469 C 86.011719 527.105469 86 527.105469 85.976562 527.105469 C 85.980469 527.105469 85.980469 527.105469 85.984375 527.105469 Z M 86.535156 526.96875 C 86.5 526.988281 86.464844 527.011719 86.429688 527.027344 C 86.421875 527.03125 86.410156 527.039062 86.402344 527.042969 C 86.394531 527.042969 86.386719 527.046875 86.378906 527.050781 C 86.339844 527.0625 86.296875 527.078125 86.257812 527.085938 C 86.234375 527.09375 86.210938 527.097656 86.1875 527.101562 C 86.183594 527.101562 86.183594 527.101562 86.179688 527.101562 C 86.140625 527.105469 86.097656 527.109375 86.058594 527.109375 C 86.042969 527.109375 86.03125 527.109375 86.019531 527.105469 C 86.027344 527.109375 86.007812 527.109375 85.984375 527.105469 C 85.972656 527.105469 85.960938 527.101562 85.949219 527.101562 C 85.960938 527.101562 85.96875 527.101562 85.976562 527.105469 C 85.9375 527.097656 85.902344 527.085938 85.863281 527.074219 C 85.84375 527.0625 85.824219 527.050781 85.800781 527.039062 C 85.792969 527.027344 85.785156 527.019531 85.773438 527.011719 C 85.78125 527.019531 85.765625 527.011719 85.757812 526.992188 C 85.757812 526.992188 85.753906 526.992188 85.753906 526.992188 C 85.75 526.984375 85.742188 526.972656 85.734375 526.964844 C 85.742188 526.972656 85.746094 526.976562 85.75 526.984375 C 85.738281 526.964844 85.726562 526.945312 85.714844 526.925781 C 85.714844 526.921875 85.714844 526.921875 85.714844 526.921875 C 85.71875 526.933594 85.722656 526.9375 85.726562 526.953125 C 85.722656 526.941406 85.71875 526.929688 85.714844 526.917969 C 85.703125 526.898438 85.699219 526.875 85.710938 526.90625 C 85.703125 526.886719 85.695312 526.863281 85.691406 526.839844 C 85.683594 526.808594 85.679688 526.777344 85.671875 526.746094 C 85.695312 526.867188 85.671875 526.734375 85.671875 526.699219 C 85.671875 526.664062 85.671875 526.628906 85.671875 526.59375 C 85.671875 526.574219 85.675781 526.558594 85.675781 526.539062 C 85.675781 526.546875 85.675781 526.550781 85.675781 526.558594 C 85.683594 526.527344 85.691406 526.5 85.699219 526.472656 C 85.703125 526.464844 85.707031 526.453125 85.710938 526.441406 C 85.710938 526.4375 85.714844 526.433594 85.714844 526.429688 C 85.730469 526.402344 85.742188 526.378906 85.757812 526.355469 C 85.765625 526.34375 85.773438 526.335938 85.777344 526.324219 C 85.800781 526.300781 85.824219 526.277344 85.847656 526.253906 C 85.855469 526.246094 85.867188 526.238281 85.875 526.226562 C 85.925781 526.199219 85.972656 526.171875 86.019531 526.144531 C 86.035156 526.140625 86.078125 526.121094 86.097656 526.117188 C 86.109375 526.113281 86.125 526.109375 86.136719 526.109375 C 86.121094 526.109375 86.144531 526.101562 86.167969 526.101562 C 86.167969 526.101562 86.167969 526.101562 86.171875 526.101562 C 86.179688 526.097656 86.1875 526.097656 86.191406 526.09375 C 86.183594 526.097656 86.179688 526.097656 86.171875 526.101562 C 86.191406 526.097656 86.210938 526.097656 86.230469 526.097656 C 86.246094 526.097656 86.261719 526.097656 86.277344 526.101562 C 86.285156 526.101562 86.285156 526.101562 86.289062 526.101562 C 86.316406 526.105469 86.347656 526.117188 86.359375 526.121094 C 86.359375 526.121094 86.359375 526.121094 86.363281 526.121094 C 86.355469 526.117188 86.351562 526.117188 86.335938 526.109375 C 86.347656 526.113281 86.359375 526.121094 86.371094 526.125 C 86.378906 526.128906 86.390625 526.136719 86.390625 526.136719 C 86.394531 526.136719 86.394531 526.136719 86.394531 526.136719 C 86.550781 526.222656 86.773438 526.183594 86.863281 526.015625 C 86.945312 525.859375 86.90625 525.640625 86.738281 525.550781 C 86.390625 525.363281 85.980469 525.390625 85.636719 525.574219 C 85.277344 525.769531 85.046875 526.121094 85 526.523438 C 84.957031 526.859375 85.046875 527.242188 85.292969 527.492188 C 85.496094 527.699219 85.796875 527.792969 86.082031 527.789062 C 86.355469 527.785156 86.652344 527.710938 86.878906 527.554688 C 87.023438 527.453125 87.105469 527.25 87 527.089844 C 86.90625 526.945312 86.691406 526.859375 86.535156 526.96875 Z M 85.878906 526.226562 C 85.902344 526.207031 85.945312 526.1875 85.878906 526.226562 Z M 86.136719 526.109375 C 86.144531 526.105469 86.15625 526.105469 86.171875 526.101562 C 86.160156 526.101562 86.148438 526.105469 86.136719 526.109375 Z M 85.675781 526.558594 C 85.671875 526.589844 85.675781 526.621094 85.675781 526.558594 Z M 85.714844 526.917969 C 85.714844 526.921875 85.714844 526.921875 85.714844 526.921875 C 85.714844 526.917969 85.710938 526.910156 85.710938 526.910156 C 85.710938 526.910156 85.710938 526.910156 85.710938 526.914062 C 85.710938 526.914062 85.714844 526.917969 85.714844 526.917969 Z M 78.71875 527.066406 C 78.71875 527.066406 78.71875 527.066406 78.722656 527.070312 C 78.71875 527.066406 78.71875 527.058594 78.714844 527.054688 C 78.714844 527.054688 78.71875 527.058594 78.71875 527.058594 C 78.71875 527.0625 78.71875 527.0625 78.71875 527.066406 Z M 78.992188 527.25 C 79 527.253906 79.011719 527.253906 79.023438 527.253906 C 79.019531 527.253906 79.003906 527.25 78.984375 527.25 C 78.984375 527.25 78.988281 527.25 78.988281 527.25 C 78.988281 527.25 78.992188 527.25 78.992188 527.25 Z M 78.761719 527.140625 C 78.769531 527.144531 78.773438 527.152344 78.78125 527.15625 C 78.777344 527.152344 78.769531 527.144531 78.757812 527.128906 C 78.757812 527.132812 78.757812 527.136719 78.761719 527.136719 C 78.761719 527.136719 78.761719 527.140625 78.761719 527.140625 Z M 79.144531 526.253906 C 79.148438 526.253906 79.160156 526.25 79.179688 526.246094 C 79.179688 526.246094 79.175781 526.246094 79.175781 526.246094 C 79.164062 526.25 79.15625 526.25 79.144531 526.253906 Z M 78.703125 526.621094 C 78.707031 526.609375 78.710938 526.601562 78.714844 526.589844 C 78.71875 526.585938 78.71875 526.578125 78.722656 526.574219 C 78.734375 526.550781 78.75 526.523438 78.765625 526.5 C 78.769531 526.492188 78.777344 526.480469 78.785156 526.472656 C 78.808594 526.449219 78.828125 526.421875 78.851562 526.402344 C 78.863281 526.390625 78.871094 526.382812 78.882812 526.375 C 78.929688 526.347656 78.976562 526.316406 79.027344 526.292969 C 79.039062 526.285156 79.082031 526.265625 79.105469 526.261719 C 79.117188 526.257812 79.128906 526.257812 79.144531 526.253906 C 79.128906 526.253906 79.152344 526.25 79.171875 526.246094 C 79.175781 526.246094 79.175781 526.246094 79.175781 526.246094 C 79.183594 526.246094 79.191406 526.242188 79.199219 526.242188 C 79.1875 526.246094 79.1875 526.246094 79.179688 526.246094 C 79.199219 526.246094 79.21875 526.242188 79.238281 526.246094 C 79.253906 526.246094 79.269531 526.246094 79.285156 526.246094 C 79.292969 526.246094 79.292969 526.246094 79.296875 526.246094 C 79.324219 526.253906 79.355469 526.261719 79.363281 526.265625 C 79.367188 526.265625 79.367188 526.269531 79.367188 526.269531 C 79.359375 526.265625 79.355469 526.261719 79.34375 526.253906 C 79.355469 526.261719 79.363281 526.265625 79.375 526.269531 C 79.386719 526.277344 79.398438 526.28125 79.398438 526.28125 C 79.398438 526.28125 79.398438 526.285156 79.402344 526.285156 C 79.558594 526.371094 79.78125 526.328125 79.867188 526.164062 C 79.953125 526.003906 79.914062 525.789062 79.746094 525.699219 C 79.398438 525.507812 78.984375 525.535156 78.644531 525.71875 C 78.285156 525.914062 78.054688 526.269531 78.003906 526.667969 C 77.960938 527.007812 78.054688 527.390625 78.296875 527.636719 C 78.503906 527.847656 78.800781 527.9375 79.089844 527.933594 C 79.359375 527.929688 79.65625 527.855469 79.882812 527.699219 C 80.027344 527.597656 80.109375 527.398438 80.003906 527.234375 C 79.910156 527.089844 79.695312 527.003906 79.539062 527.113281 C 79.507812 527.136719 79.472656 527.15625 79.4375 527.175781 C 79.425781 527.179688 79.417969 527.183594 79.40625 527.1875 C 79.398438 527.191406 79.390625 527.195312 79.386719 527.195312 C 79.34375 527.210938 79.304688 527.222656 79.261719 527.234375 C 79.238281 527.238281 79.214844 527.242188 79.191406 527.246094 C 79.191406 527.246094 79.1875 527.25 79.1875 527.25 C 79.144531 527.25 79.105469 527.253906 79.0625 527.253906 C 79.050781 527.253906 79.035156 527.253906 79.023438 527.253906 C 79.03125 527.253906 79.011719 527.253906 78.992188 527.253906 C 78.992188 527.253906 78.988281 527.25 78.988281 527.25 C 78.976562 527.25 78.964844 527.25 78.953125 527.246094 C 78.96875 527.25 78.972656 527.25 78.984375 527.25 C 78.945312 527.242188 78.90625 527.230469 78.871094 527.21875 C 78.847656 527.207031 78.828125 527.195312 78.808594 527.183594 C 78.796875 527.175781 78.789062 527.164062 78.78125 527.15625 C 78.785156 527.164062 78.773438 527.15625 78.761719 527.140625 C 78.761719 527.136719 78.761719 527.136719 78.761719 527.136719 C 78.753906 527.128906 78.746094 527.117188 78.738281 527.109375 C 78.746094 527.121094 78.75 527.125 78.757812 527.128906 C 78.746094 527.109375 78.734375 527.089844 78.722656 527.070312 C 78.726562 527.078125 78.726562 527.085938 78.734375 527.101562 C 78.730469 527.089844 78.722656 527.078125 78.71875 527.066406 C 78.710938 527.046875 78.703125 527.019531 78.714844 527.054688 C 78.707031 527.03125 78.703125 527.007812 78.695312 526.988281 C 78.6875 526.953125 78.683594 526.921875 78.675781 526.890625 C 78.703125 527.011719 78.679688 526.882812 78.675781 526.847656 C 78.675781 526.8125 78.675781 526.777344 78.679688 526.738281 C 78.679688 526.722656 78.683594 526.703125 78.683594 526.6875 C 78.683594 526.695312 78.683594 526.695312 78.683594 526.703125 C 78.6875 526.675781 78.695312 526.648438 78.703125 526.621094 Z M 78.882812 526.371094 C 78.90625 526.351562 78.949219 526.335938 78.882812 526.371094 Z M 78.683594 526.703125 C 78.683594 526.703125 78.683594 526.703125 78.683594 526.707031 C 78.675781 526.734375 78.679688 526.769531 78.683594 526.703125 Z M 79.367188 526.269531 C 79.386719 526.277344 79.398438 526.285156 79.398438 526.28125 C 79.390625 526.277344 79.382812 526.273438 79.375 526.269531 C 79.371094 526.269531 79.371094 526.269531 79.367188 526.269531 Z M 62.40625 526.550781 C 62.402344 526.578125 62.402344 526.609375 62.40625 526.550781 Z M 62.722656 527.171875 C 62.722656 527.171875 62.722656 527.171875 62.726562 527.171875 C 62.691406 527.152344 62.691406 527.15625 62.703125 527.164062 C 62.703125 527.164062 62.707031 527.164062 62.707031 527.164062 C 62.710938 527.167969 62.71875 527.167969 62.722656 527.171875 Z M 62.585938 526.226562 C 62.609375 526.214844 62.613281 526.210938 62.605469 526.214844 C 62.601562 526.21875 62.597656 526.222656 62.589844 526.222656 C 62.589844 526.226562 62.589844 526.226562 62.585938 526.226562 Z M 62.867188 526.109375 C 62.886719 526.109375 62.898438 526.109375 62.902344 526.109375 C 62.890625 526.109375 62.878906 526.109375 62.867188 526.109375 Z M 63.402344 527.007812 C 63.382812 527.03125 63.359375 527.054688 63.335938 527.074219 C 63.328125 527.082031 63.320312 527.085938 63.3125 527.09375 C 63.289062 527.109375 63.265625 527.125 63.238281 527.140625 C 63.226562 527.148438 63.214844 527.152344 63.203125 527.15625 C 63.15625 527.167969 63.101562 527.1875 63.050781 527.203125 C 63.054688 527.203125 63.046875 527.203125 63.039062 527.207031 C 63.035156 527.207031 63.035156 527.207031 63.035156 527.207031 C 63.023438 527.207031 63.007812 527.210938 62.996094 527.210938 C 63.007812 527.210938 63.011719 527.210938 63.019531 527.207031 C 62.984375 527.210938 62.953125 527.210938 62.917969 527.210938 C 62.886719 527.210938 62.855469 527.203125 62.824219 527.203125 C 62.933594 527.207031 62.839844 527.203125 62.804688 527.195312 C 62.777344 527.1875 62.75 527.179688 62.726562 527.171875 C 62.730469 527.175781 62.734375 527.175781 62.742188 527.179688 C 62.730469 527.175781 62.71875 527.171875 62.707031 527.164062 C 62.707031 527.164062 62.703125 527.164062 62.703125 527.164062 C 62.699219 527.160156 62.695312 527.160156 62.691406 527.15625 C 62.664062 527.144531 62.636719 527.128906 62.609375 527.109375 C 62.601562 527.105469 62.589844 527.09375 62.578125 527.085938 C 62.585938 527.089844 62.585938 527.089844 62.589844 527.09375 C 62.570312 527.074219 62.550781 527.054688 62.53125 527.03125 C 62.519531 527.023438 62.511719 527.007812 62.5 526.996094 C 62.503906 527.003906 62.507812 527.003906 62.511719 527.007812 C 62.511719 527.007812 62.507812 527.007812 62.507812 527.003906 C 62.492188 526.980469 62.476562 526.953125 62.460938 526.925781 C 62.457031 526.917969 62.453125 526.90625 62.449219 526.898438 C 62.429688 526.84375 62.414062 526.785156 62.402344 526.730469 C 62.402344 526.71875 62.402344 526.707031 62.402344 526.699219 C 62.398438 526.671875 62.398438 526.640625 62.398438 526.613281 C 62.402344 526.585938 62.40625 526.558594 62.40625 526.527344 C 62.40625 526.539062 62.40625 526.542969 62.40625 526.550781 C 62.40625 526.546875 62.40625 526.546875 62.40625 526.546875 C 62.410156 526.527344 62.414062 526.507812 62.417969 526.492188 C 62.425781 526.464844 62.441406 526.4375 62.445312 526.410156 C 62.449219 526.402344 62.453125 526.394531 62.457031 526.390625 C 62.46875 526.363281 62.484375 526.339844 62.5 526.316406 C 62.5 526.316406 62.5 526.3125 62.503906 526.3125 C 62.511719 526.300781 62.519531 526.289062 62.53125 526.28125 C 62.546875 526.261719 62.566406 526.246094 62.585938 526.226562 C 62.582031 526.230469 62.582031 526.234375 62.574219 526.238281 C 62.578125 526.234375 62.585938 526.230469 62.589844 526.222656 C 62.59375 526.222656 62.597656 526.21875 62.597656 526.21875 C 62.601562 526.214844 62.601562 526.214844 62.605469 526.214844 C 62.609375 526.214844 62.609375 526.210938 62.613281 526.210938 C 62.636719 526.195312 62.660156 526.179688 62.683594 526.167969 C 62.695312 526.164062 62.707031 526.15625 62.71875 526.152344 C 62.71875 526.152344 62.722656 526.148438 62.726562 526.148438 C 62.757812 526.136719 62.789062 526.128906 62.824219 526.121094 C 62.839844 526.117188 62.851562 526.113281 62.867188 526.109375 C 62.863281 526.109375 62.859375 526.109375 62.855469 526.109375 C 62.859375 526.109375 62.863281 526.109375 62.867188 526.109375 C 62.867188 526.109375 62.871094 526.109375 62.871094 526.109375 C 62.894531 526.105469 62.914062 526.109375 62.902344 526.109375 C 62.953125 526.109375 63.003906 526.105469 63.054688 526.109375 C 63.070312 526.113281 63.085938 526.113281 63.101562 526.117188 C 63.132812 526.125 63.160156 526.136719 63.191406 526.144531 C 63.203125 526.152344 63.21875 526.160156 63.230469 526.164062 C 63.265625 526.183594 63.296875 526.203125 63.324219 526.226562 C 63.46875 526.332031 63.710938 526.253906 63.792969 526.105469 C 63.886719 525.929688 63.824219 525.753906 63.667969 525.640625 C 63.375 525.421875 62.964844 525.375 62.617188 525.472656 C 62.234375 525.574219 61.945312 525.839844 61.796875 526.203125 C 61.660156 526.542969 61.707031 526.949219 61.875 527.269531 C 62.039062 527.585938 62.363281 527.8125 62.714844 527.867188 C 63.136719 527.933594 63.59375 527.816406 63.882812 527.488281 C 64 527.355469 64.023438 527.136719 63.882812 527.007812 C 63.753906 526.890625 63.527344 526.863281 63.402344 527.007812 Z M 63.039062 527.207031 C 63.042969 527.203125 63.046875 527.203125 63.050781 527.203125 C 63.050781 527.203125 63.039062 527.203125 63.019531 527.207031 C 63.019531 527.207031 63.019531 527.207031 63.023438 527.207031 C 63.027344 527.207031 63.03125 527.207031 63.039062 527.207031 Z M 62.589844 527.09375 C 62.617188 527.117188 62.640625 527.117188 62.589844 527.09375 Z M 62.511719 527.007812 C 62.527344 527.03125 62.550781 527.042969 62.511719 527.007812 Z M 66.191406 527.160156 C 66.203125 527.160156 66.210938 527.160156 66.222656 527.160156 C 66.21875 527.160156 66.207031 527.160156 66.183594 527.15625 C 66.183594 527.15625 66.1875 527.160156 66.191406 527.160156 Z M 65.917969 526.972656 C 65.921875 526.972656 65.921875 526.976562 65.921875 526.976562 C 65.921875 526.972656 65.917969 526.964844 65.917969 526.960938 C 65.917969 526.964844 65.917969 526.964844 65.917969 526.96875 C 65.917969 526.96875 65.917969 526.972656 65.917969 526.972656 Z M 65.964844 527.046875 C 65.96875 527.054688 65.976562 527.058594 65.980469 527.0625 C 65.976562 527.058594 65.96875 527.050781 65.957031 527.039062 C 65.957031 527.039062 65.960938 527.042969 65.960938 527.046875 C 65.960938 527.046875 65.960938 527.046875 65.964844 527.046875 Z M 66.738281 527.019531 C 66.707031 527.042969 66.671875 527.0625 66.636719 527.082031 C 66.625 527.085938 66.617188 527.089844 66.609375 527.097656 C 66.601562 527.097656 66.59375 527.101562 66.585938 527.105469 C 66.546875 527.117188 66.503906 527.128906 66.460938 527.140625 C 66.4375 527.144531 66.414062 527.152344 66.390625 527.15625 C 66.390625 527.15625 66.390625 527.15625 66.386719 527.15625 C 66.347656 527.160156 66.304688 527.164062 66.265625 527.164062 C 66.25 527.164062 66.238281 527.160156 66.222656 527.160156 C 66.234375 527.164062 66.210938 527.164062 66.191406 527.160156 C 66.191406 527.160156 66.191406 527.160156 66.1875 527.160156 C 66.179688 527.160156 66.167969 527.15625 66.15625 527.15625 C 66.167969 527.15625 66.171875 527.15625 66.183594 527.15625 C 66.144531 527.148438 66.105469 527.140625 66.070312 527.128906 C 66.050781 527.117188 66.027344 527.105469 66.007812 527.089844 C 66 527.082031 65.988281 527.074219 65.980469 527.0625 C 65.984375 527.074219 65.972656 527.0625 65.960938 527.046875 C 65.953125 527.035156 65.949219 527.027344 65.9375 527.019531 C 65.949219 527.027344 65.949219 527.03125 65.957031 527.039062 C 65.945312 527.019531 65.933594 526.996094 65.921875 526.976562 C 65.925781 526.984375 65.925781 526.992188 65.933594 527.007812 C 65.929688 526.996094 65.925781 526.984375 65.917969 526.972656 C 65.910156 526.953125 65.902344 526.929688 65.917969 526.960938 C 65.910156 526.941406 65.902344 526.917969 65.894531 526.894531 C 65.886719 526.863281 65.882812 526.832031 65.878906 526.796875 C 65.902344 526.921875 65.878906 526.789062 65.878906 526.753906 C 65.878906 526.71875 65.875 526.683594 65.878906 526.648438 C 65.878906 526.628906 65.882812 526.613281 65.882812 526.59375 C 65.882812 526.601562 65.882812 526.605469 65.882812 526.609375 C 65.886719 526.582031 65.894531 526.554688 65.90625 526.527344 C 65.90625 526.519531 65.910156 526.507812 65.914062 526.496094 C 65.917969 526.492188 65.921875 526.488281 65.921875 526.480469 C 65.9375 526.457031 65.949219 526.433594 65.964844 526.410156 C 65.972656 526.398438 65.976562 526.390625 65.984375 526.378906 C 66.007812 526.355469 66.027344 526.332031 66.050781 526.308594 C 66.0625 526.300781 66.074219 526.289062 66.082031 526.28125 C 66.128906 526.253906 66.175781 526.226562 66.226562 526.199219 C 66.242188 526.195312 66.285156 526.175781 66.304688 526.171875 C 66.316406 526.167969 66.332031 526.164062 66.34375 526.160156 C 66.328125 526.164062 66.351562 526.15625 66.371094 526.15625 C 66.375 526.15625 66.375 526.15625 66.378906 526.15625 C 66.382812 526.152344 66.390625 526.152344 66.398438 526.148438 C 66.390625 526.152344 66.386719 526.152344 66.378906 526.15625 C 66.398438 526.152344 66.417969 526.152344 66.4375 526.152344 C 66.453125 526.152344 66.46875 526.152344 66.484375 526.152344 C 66.492188 526.15625 66.492188 526.152344 66.496094 526.15625 C 66.523438 526.160156 66.554688 526.171875 66.566406 526.175781 C 66.566406 526.175781 66.566406 526.175781 66.570312 526.175781 C 66.5625 526.171875 66.554688 526.171875 66.542969 526.164062 C 66.554688 526.167969 66.566406 526.175781 66.574219 526.179688 C 66.585938 526.183594 66.597656 526.1875 66.597656 526.191406 C 66.597656 526.191406 66.601562 526.191406 66.601562 526.191406 C 66.757812 526.277344 66.980469 526.234375 67.066406 526.070312 C 67.152344 525.910156 67.113281 525.695312 66.945312 525.605469 C 66.597656 525.417969 66.1875 525.441406 65.84375 525.628906 C 65.484375 525.820312 65.253906 526.175781 65.203125 526.574219 C 65.164062 526.914062 65.253906 527.296875 65.5 527.546875 C 65.703125 527.753906 66 527.847656 66.289062 527.84375 C 66.558594 527.839844 66.859375 527.761719 67.082031 527.609375 C 67.230469 527.507812 67.308594 527.304688 67.207031 527.144531 C 67.109375 526.996094 66.894531 526.914062 66.738281 527.019531 Z M 66.082031 526.28125 C 66.105469 526.261719 66.148438 526.242188 66.082031 526.28125 Z M 66.570312 526.175781 C 66.585938 526.1875 66.597656 526.191406 66.597656 526.191406 C 66.589844 526.1875 66.582031 526.183594 66.574219 526.179688 C 66.574219 526.179688 66.570312 526.175781 66.570312 526.175781 Z M 66.34375 526.160156 C 66.347656 526.160156 66.363281 526.15625 66.378906 526.152344 C 66.367188 526.15625 66.355469 526.160156 66.34375 526.160156 Z M 65.882812 526.609375 C 65.882812 526.613281 65.882812 526.613281 65.882812 526.613281 C 65.875 526.644531 65.882812 526.675781 65.882812 526.609375 Z M 59.195312 527.304688 C 59.207031 527.304688 59.21875 527.304688 59.230469 527.308594 C 59.226562 527.304688 59.210938 527.304688 59.1875 527.304688 C 59.191406 527.304688 59.191406 527.304688 59.195312 527.304688 Z M 59.746094 527.167969 C 59.710938 527.191406 59.675781 527.210938 59.640625 527.226562 C 59.632812 527.234375 59.621094 527.238281 59.613281 527.242188 C 59.605469 527.246094 59.597656 527.246094 59.589844 527.25 C 59.550781 527.265625 59.507812 527.277344 59.46875 527.285156 C 59.445312 527.292969 59.421875 527.296875 59.398438 527.300781 C 59.394531 527.300781 59.394531 527.300781 59.394531 527.300781 C 59.351562 527.304688 59.3125 527.308594 59.269531 527.308594 C 59.257812 527.308594 59.242188 527.308594 59.230469 527.308594 C 59.238281 527.308594 59.21875 527.308594 59.199219 527.304688 C 59.195312 527.304688 59.195312 527.304688 59.195312 527.304688 C 59.183594 527.304688 59.171875 527.300781 59.160156 527.300781 C 59.175781 527.300781 59.179688 527.304688 59.1875 527.304688 C 59.148438 527.296875 59.113281 527.285156 59.074219 527.273438 C 59.054688 527.261719 59.035156 527.25 59.015625 527.238281 C 59.003906 527.230469 58.996094 527.21875 58.984375 527.210938 C 58.992188 527.21875 58.976562 527.210938 58.96875 527.191406 C 58.960938 527.183594 58.953125 527.171875 58.945312 527.164062 C 58.953125 527.171875 58.957031 527.175781 58.960938 527.183594 C 58.949219 527.164062 58.9375 527.144531 58.925781 527.125 C 58.925781 527.125 58.925781 527.121094 58.925781 527.121094 C 58.929688 527.132812 58.933594 527.136719 58.9375 527.15625 C 58.933594 527.140625 58.929688 527.128906 58.925781 527.117188 C 58.914062 527.101562 58.910156 527.074219 58.921875 527.109375 C 58.914062 527.085938 58.90625 527.0625 58.902344 527.039062 C 58.894531 527.007812 58.890625 526.976562 58.882812 526.945312 C 58.90625 527.066406 58.882812 526.9375 58.882812 526.902344 C 58.882812 526.863281 58.882812 526.828125 58.882812 526.792969 C 58.886719 526.777344 58.886719 526.757812 58.886719 526.738281 C 58.886719 526.75 58.886719 526.75 58.886719 526.757812 C 58.894531 526.730469 58.902344 526.703125 58.910156 526.675781 C 58.914062 526.664062 58.917969 526.652344 58.921875 526.644531 C 58.921875 526.636719 58.925781 526.632812 58.929688 526.628906 C 58.941406 526.601562 58.957031 526.578125 58.972656 526.554688 C 58.976562 526.546875 58.984375 526.535156 58.992188 526.527344 C 59.011719 526.5 59.035156 526.476562 59.058594 526.453125 C 59.066406 526.445312 59.078125 526.4375 59.089844 526.429688 C 59.136719 526.398438 59.183594 526.371094 59.230469 526.34375 C 59.246094 526.339844 59.289062 526.320312 59.308594 526.316406 C 59.324219 526.3125 59.335938 526.308594 59.347656 526.308594 C 59.332031 526.308594 59.355469 526.300781 59.378906 526.300781 C 59.378906 526.300781 59.382812 526.300781 59.382812 526.300781 C 59.390625 526.300781 59.398438 526.296875 59.40625 526.296875 C 59.394531 526.296875 59.390625 526.296875 59.382812 526.300781 C 59.402344 526.300781 59.421875 526.296875 59.441406 526.296875 C 59.457031 526.296875 59.472656 526.300781 59.488281 526.300781 C 59.5 526.300781 59.5 526.300781 59.503906 526.300781 C 59.53125 526.308594 59.558594 526.316406 59.570312 526.320312 C 59.570312 526.320312 59.574219 526.320312 59.574219 526.324219 C 59.566406 526.320312 59.5625 526.316406 59.550781 526.308594 C 59.558594 526.316406 59.570312 526.320312 59.582031 526.324219 C 59.59375 526.332031 59.601562 526.335938 59.601562 526.335938 C 59.605469 526.335938 59.605469 526.335938 59.605469 526.339844 C 59.765625 526.421875 59.984375 526.382812 60.074219 526.214844 C 60.15625 526.058594 60.117188 525.84375 59.949219 525.75 C 59.601562 525.5625 59.191406 525.589844 58.847656 525.773438 C 58.488281 525.96875 58.257812 526.324219 58.210938 526.722656 C 58.167969 527.0625 58.261719 527.445312 58.503906 527.691406 C 58.710938 527.898438 59.007812 527.992188 59.292969 527.988281 C 59.566406 527.984375 59.863281 527.910156 60.089844 527.753906 C 60.234375 527.652344 60.316406 527.453125 60.210938 527.289062 C 60.117188 527.144531 59.902344 527.058594 59.746094 527.167969 Z M 59.089844 526.425781 C 59.113281 526.40625 59.15625 526.386719 59.089844 526.425781 Z M 58.925781 527.117188 C 58.925781 527.121094 58.925781 527.121094 58.925781 527.121094 C 58.925781 527.117188 58.921875 527.113281 58.921875 527.109375 C 58.921875 527.109375 58.921875 527.113281 58.921875 527.113281 C 58.925781 527.117188 58.925781 527.117188 58.925781 527.117188 Z M 58.886719 526.757812 C 58.882812 526.789062 58.886719 526.824219 58.886719 526.757812 Z M 59.574219 526.324219 C 59.59375 526.332031 59.605469 526.335938 59.601562 526.335938 C 59.597656 526.332031 59.589844 526.328125 59.582031 526.324219 C 59.578125 526.324219 59.578125 526.324219 59.574219 526.324219 Z M 59.347656 526.308594 C 59.355469 526.308594 59.367188 526.304688 59.382812 526.300781 C 59.371094 526.300781 59.359375 526.304688 59.347656 526.308594 Z M 58.96875 527.195312 C 58.972656 527.199219 58.980469 527.203125 58.984375 527.210938 C 58.984375 527.207031 58.976562 527.195312 58.960938 527.183594 C 58.964844 527.1875 58.964844 527.1875 58.96875 527.191406 C 58.96875 527.191406 58.96875 527.191406 58.96875 527.195312 Z M 86.773438 495.429688 C 86.9375 495.34375 87.003906 495.140625 86.917969 494.972656 C 86.832031 494.804688 86.628906 494.738281 86.460938 494.824219 C 78.199219 499.0625 70.695312 493.257812 70.621094 493.199219 C 70.472656 493.082031 70.257812 493.109375 70.140625 493.253906 C 70.023438 493.402344 70.050781 493.613281 70.195312 493.730469 C 70.253906 493.777344 74.476562 497.050781 80.136719 497.050781 C 82.203125 497.050781 84.457031 496.617188 86.773438 495.429688 Z M 30.941406 520.808594 C 30.753906 520.78125 30.582031 520.90625 30.550781 521.089844 C 30.523438 521.277344 30.648438 521.449219 30.832031 521.480469 C 30.847656 521.480469 32.355469 521.738281 32.933594 522.933594 C 32.992188 523.054688 33.113281 523.125 33.242188 523.125 C 33.292969 523.125 33.339844 523.113281 33.390625 523.089844 C 33.558594 523.007812 33.628906 522.804688 33.546875 522.636719 C 32.8125 521.121094 31.015625 520.820312 30.941406 520.808594 Z M 54.441406 485.902344 L 53.714844 485.445312 C 53.5625 485.34375 53.359375 485.386719 53.253906 485.539062 L 48.371094 492.585938 C 48.261719 492.738281 48.300781 492.949219 48.457031 493.058594 C 48.515625 493.097656 48.582031 493.117188 48.648438 493.117188 C 48.757812 493.117188 48.863281 493.066406 48.929688 492.972656 L 53.628906 486.191406 L 54.195312 486.550781 C 54.28125 486.605469 54.382812 486.617188 54.480469 486.585938 C 54.492188 486.582031 55.816406 486.199219 56.910156 488.074219 C 57.007812 488.234375 57.214844 488.289062 57.375 488.195312 C 57.539062 488.101562 57.59375 487.894531 57.5 487.730469 C 56.359375 485.78125 54.925781 485.820312 54.441406 485.902344 Z M 70.71875 456.582031 C 67.949219 460.085938 65.601562 463.914062 63.757812 467.980469 C 63.234375 469.140625 62.75 470.316406 62.304688 471.507812 C 62.148438 471.917969 62.808594 472.097656 62.960938 471.691406 C 64.488281 467.59375 66.515625 463.6875 68.984375 460.078125 C 69.6875 459.046875 70.425781 458.039062 71.199219 457.0625 C 71.46875 456.722656 70.988281 456.238281 70.71875 456.582031 Z M 61.808594 470.644531 C 61.382812 468.378906 61.511719 466.042969 62.15625 463.832031 C 62.277344 463.414062 61.621094 463.234375 61.5 463.652344 C 60.820312 465.980469 60.707031 468.441406 61.152344 470.824219 C 61.230469 471.253906 61.886719 471.070312 61.808594 470.644531 Z M 99.75 476.035156 C 100.460938 474.933594 101.140625 473.808594 101.601562 472.578125 C 102.0625 471.351562 102.273438 470.054688 102.449219 468.765625 C 102.476562 468.582031 102.40625 468.402344 102.214844 468.347656 C 102.054688 468.300781 101.820312 468.402344 101.792969 468.585938 C 101.621094 469.851562 101.414062 471.125 100.96875 472.332031 C 100.53125 473.527344 99.851562 474.625 99.160156 475.691406 C 98.921875 476.058594 99.511719 476.402344 99.75 476.035156 Z M 86.519531 452.183594 C 86.679688 452.261719 86.835938 452.351562 86.984375 452.453125 C 87.023438 452.480469 87.0625 452.507812 87.097656 452.535156 C 87.101562 452.539062 87.125 452.558594 87.132812 452.5625 C 87.140625 452.566406 87.144531 452.570312 87.148438 452.574219 C 87.21875 452.632812 87.289062 452.691406 87.355469 452.753906 C 87.484375 452.875 87.601562 453.007812 87.714844 453.144531 C 87.714844 453.148438 87.714844 453.144531 87.71875 453.148438 C 87.71875 453.152344 87.71875 453.148438 87.722656 453.152344 C 87.734375 453.171875 87.746094 453.1875 87.757812 453.203125 C 87.785156 453.242188 87.8125 453.28125 87.835938 453.316406 C 87.886719 453.394531 87.9375 453.472656 87.980469 453.554688 C 88.070312 453.707031 88.292969 453.773438 88.445312 453.675781 C 88.605469 453.574219 88.664062 453.375 88.570312 453.210938 C 88.179688 452.519531 87.578125 451.945312 86.863281 451.597656 C 86.703125 451.519531 86.488281 451.546875 86.394531 451.71875 C 86.316406 451.871094 86.347656 452.101562 86.519531 452.183594 Z M 90.78125 455.050781 C 91.085938 454.855469 91.316406 454.753906 91.671875 454.675781 C 91.746094 454.660156 91.820312 454.644531 91.894531 454.632812 C 91.910156 454.632812 91.976562 454.625 91.988281 454.625 C 92.03125 454.621094 92.078125 454.617188 92.125 454.617188 C 92.292969 454.609375 92.464844 454.617188 92.636719 454.640625 C 92.8125 454.664062 92.984375 454.46875 92.976562 454.300781 C 92.96875 454.097656 92.824219 453.984375 92.636719 453.960938 C 91.875 453.859375 91.078125 454.046875 90.4375 454.464844 C 90.289062 454.558594 90.214844 454.769531 90.316406 454.929688 C 90.414062 455.078125 90.621094 455.152344 90.78125 455.050781 Z M 87.425781 455.457031 C 87.375 455.429688 87.316406 455.414062 87.253906 455.414062 C 87.019531 455.382812 86.785156 455.351562 86.550781 455.320312 C 86.46875 455.3125 86.363281 455.367188 86.308594 455.421875 C 86.25 455.480469 86.207031 455.578125 86.210938 455.660156 C 86.214844 455.75 86.242188 455.839844 86.308594 455.902344 C 86.332031 455.917969 86.355469 455.9375 86.378906 455.957031 C 86.429688 455.984375 86.488281 456 86.550781 456 C 86.785156 456.03125 87.019531 456.0625 87.253906 456.09375 C 87.335938 456.101562 87.441406 456.046875 87.496094 455.992188 C 87.554688 455.933594 87.597656 455.835938 87.59375 455.753906 C 87.589844 455.664062 87.5625 455.574219 87.496094 455.511719 C 87.472656 455.496094 87.449219 455.476562 87.425781 455.457031 Z M 79.894531 483.007812 C 80.652344 479.851562 81.300781 476.671875 81.824219 473.464844 C 81.894531 473.035156 81.238281 472.851562 81.167969 473.285156 C 80.644531 476.492188 79.996094 479.667969 79.238281 482.828125 C 79.136719 483.253906 79.792969 483.433594 79.894531 483.007812 Z M 90.503906 473.371094 C 90.570312 473.539062 90.730469 473.660156 90.921875 473.605469 C 91.085938 473.5625 91.226562 473.359375 91.160156 473.1875 C 90.632812 471.871094 89.476562 470.808594 88.007812 470.746094 C 87.824219 470.738281 87.667969 470.910156 87.667969 471.085938 C 87.667969 471.277344 87.824219 471.417969 88.007812 471.425781 C 88.523438 471.449219 89.050781 471.652344 89.476562 471.984375 C 89.925781 472.335938 90.289062 472.828125 90.503906 473.371094 Z M 74.109375 478.878906 C 74.757812 479.003906 75.441406 478.296875 75.632812 477.300781 C 75.828125 476.304688 75.457031 475.394531 74.804688 475.269531 C 74.15625 475.144531 73.472656 475.851562 73.28125 476.847656 C 73.085938 477.84375 73.457031 478.753906 74.109375 478.878906 Z M 86.578125 477.535156 C 85.929688 477.410156 85.246094 478.117188 85.050781 479.113281 C 84.859375 480.113281 85.230469 481.023438 85.878906 481.148438 C 86.53125 481.273438 87.214844 480.566406 87.40625 479.566406 C 87.601562 478.570312 87.230469 477.660156 86.578125 477.535156 Z M 61.722656 478.832031 C 61.707031 479.019531 61.84375 479.183594 62.03125 479.199219 C 62.222656 479.214844 62.382812 479.078125 62.398438 478.890625 C 62.429688 478.519531 62.550781 478.390625 62.566406 478.378906 C 62.605469 478.390625 62.777344 478.53125 62.882812 479.019531 C 62.914062 479.179688 63.054688 479.289062 63.214844 479.289062 C 63.21875 479.289062 63.222656 479.289062 63.230469 479.289062 C 63.394531 479.28125 63.53125 479.15625 63.550781 478.992188 C 63.832031 476.84375 62.398438 474.84375 62.335938 474.761719 C 62.226562 474.609375 62.011719 474.574219 61.859375 474.6875 C 61.707031 474.796875 61.675781 475.007812 61.785156 475.160156 C 61.796875 475.175781 62.632812 476.34375 62.855469 477.765625 C 62.714844 477.703125 62.59375 477.699219 62.53125 477.703125 C 62.183594 477.726562 61.789062 478.035156 61.722656 478.832031 Z M 95.574219 483.464844 C 95.738281 483.546875 95.933594 483.480469 96.019531 483.320312 C 96.34375 482.722656 96.628906 482.539062 96.742188 482.503906 C 96.746094 482.609375 96.691406 482.882812 96.347656 483.296875 C 96.226562 483.441406 96.246094 483.65625 96.390625 483.777344 C 96.453125 483.828125 96.53125 483.855469 96.609375 483.855469 C 96.707031 483.855469 96.800781 483.8125 96.871094 483.734375 C 97.351562 483.15625 97.53125 482.578125 97.355469 482.183594 C 97.273438 481.996094 97.117188 481.871094 96.925781 481.828125 C 97.730469 480.871094 98.574219 480.558594 98.585938 480.554688 C 98.761719 480.492188 98.855469 480.300781 98.792969 480.121094 C 98.730469 479.945312 98.539062 479.851562 98.359375 479.914062 C 98.28125 479.941406 96.429688 480.613281 95.40625 483.027344 C 95.335938 483.195312 95.410156 483.386719 95.574219 483.464844 Z M 95.574219 483.464844 " fill-opacity="1" fill-rule="nonzero"/></svg>